<svg version="1.1" id="Layer_1" xmlns="http://www.w3.org/2000/svg" xmlns:xlink="http://www.w3.org/1999/xlink" x="0px" y="0px"
	 width="100%" viewBox="0 0 500 500" enable-background="new 0 0 500 500" xml:space="preserve">
<path fill="#FEFFFF" opacity="1.000000" stroke="none" 
	d="
M322.000000,501.000000 
	C214.666687,501.000000 107.833382,501.000000 1.000057,501.000000 
	C1.000038,334.333405 1.000038,167.666794 1.000019,1.000147 
	C167.666565,1.000098 334.333130,1.000098 500.999756,1.000049 
	C500.999847,167.666519 500.999847,334.333038 500.999939,500.999786 
	C441.500000,501.000000 382.000000,501.000000 322.000000,501.000000 
M336.977325,322.007233 
	C336.977325,322.007233 336.974457,321.953613 336.324371,322.033264 
	C335.883087,322.688232 335.441833,323.343201 335.000000,324.000000 
	C335.000000,324.000000 334.997955,324.000458 334.339142,324.273193 
	C333.550079,325.780548 332.761017,327.287903 331.971985,328.795258 
	C330.722778,327.566223 330.068878,326.045410 330.516968,324.994476 
	C332.015839,321.479187 330.158752,319.978210 327.316437,320.287689 
	C324.602875,320.583069 320.734833,321.480743 319.718811,323.372681 
	C318.398865,325.830597 319.396301,329.533020 319.396301,333.392212 
	C319.223083,333.783630 317.864746,335.411438 318.231110,336.400269 
	C318.661987,337.563324 320.484711,338.604950 321.886108,338.942413 
	C326.627472,340.084290 330.092255,337.827728 332.507599,334.039886 
	C333.872986,334.813812 334.932159,335.414154 335.998291,336.000031 
	C335.998291,336.000031 335.985931,336.009613 336.401428,336.622833 
	C340.353363,338.800476 343.934723,338.511963 347.000793,334.998505 
	C347.000793,334.998505 347.019196,335.037811 347.521271,334.887238 
	C347.684540,334.593781 347.847809,334.300354 348.000916,334.007507 
	C348.000916,334.007507 348.016296,334.021545 348.589752,333.641022 
	C349.264130,332.605591 349.938507,331.570160 350.993164,329.950836 
	C351.258270,333.059174 351.459076,335.413727 351.652313,337.679718 
	C362.763733,338.207031 364.398773,337.378052 363.033417,332.141113 
	C361.151764,332.032288 359.242920,331.921844 356.805176,331.780853 
	C356.805176,327.707733 356.805176,323.979675 356.805176,318.541473 
	C353.780548,320.644012 351.950378,321.916260 350.160645,323.160370 
	C349.652710,322.697144 348.819122,321.936951 347.758911,320.900208 
	C347.758911,320.900208 347.406250,320.841278 346.936707,320.277405 
	C344.251892,320.479767 341.567108,320.682129 338.979828,320.942871 
	C338.979828,320.942871 338.928009,320.841705 338.319153,320.871613 
	C337.861603,321.235382 337.404022,321.599121 336.977325,322.007233 
M406.998016,336.004242 
	C406.998016,336.004242 407.035126,335.988617 407.430908,336.605042 
	C410.718658,338.472565 413.893890,338.709198 417.382996,335.837738 
	C417.589020,335.559448 417.795044,335.281128 418.555176,334.785675 
	C418.820984,334.271790 419.086823,333.757904 419.399323,333.244904 
	C419.399323,333.244904 419.443695,333.260193 419.998535,332.867035 
	C420.559113,332.032532 421.119690,331.198029 422.100159,329.738434 
	C422.336517,333.074707 422.508240,335.498566 422.709381,338.337769 
	C424.650421,338.210052 426.204620,338.107758 427.789734,338.003479 
	C428.023407,335.622864 428.217590,333.644287 428.327332,332.526123 
	C431.217926,334.330872 434.055389,336.102478 437.706604,337.982849 
	C438.527344,337.947906 439.348083,337.912964 440.938751,337.964935 
	C442.568542,338.221130 444.202057,338.714172 445.827423,338.688660 
	C450.509155,338.615173 454.294434,334.976746 452.832489,331.204987 
	C451.506744,327.784729 450.706146,324.743286 452.476257,321.196472 
	C452.160980,320.736481 451.845703,320.276489 451.530396,319.816467 
	C448.042328,320.560669 444.554230,321.304840 440.439667,321.971954 
	C439.670258,321.653961 438.900818,321.335999 437.623138,320.453583 
	C433.581116,318.825958 432.242065,321.285004 431.807343,324.949463 
	C426.389496,319.107941 424.810516,318.968353 421.452606,323.664612 
	C417.300476,318.574829 413.744751,318.127319 407.988129,321.987061 
	C407.988129,321.987061 407.976654,321.953125 407.472351,322.096588 
	C407.307739,322.393066 407.143127,322.689575 406.538666,323.172852 
	C406.267059,323.361450 406.077362,323.612091 405.524536,323.945831 
	C405.524536,323.945831 405.095459,324.066101 404.594086,323.789246 
	C404.128265,323.195679 403.662445,322.602081 403.050964,321.548401 
	C403.050964,321.548401 402.919525,321.083984 403.238464,320.376923 
	C403.473236,319.585938 404.062073,318.694977 403.872498,318.023834 
	C403.412231,316.394135 402.590057,314.866638 401.913696,313.297974 
	C400.823975,314.277313 399.841797,315.428406 398.618591,316.194641 
	C396.904175,317.268524 395.084290,318.284607 393.172821,318.902679 
	C391.204956,319.538940 389.072968,319.667755 386.451233,320.181885 
	C386.063171,320.183777 385.675110,320.185699 384.586578,320.022919 
	C383.725708,320.282013 382.864807,320.541077 381.575958,320.965088 
	C381.575958,320.965088 381.131714,321.079071 380.607971,321.013916 
	C380.432007,321.012939 380.256073,321.011963 379.807220,320.355042 
	C376.481964,318.284210 374.678955,318.775238 374.518921,323.117706 
	C374.417328,325.875366 373.717712,328.610992 373.286255,331.356506 
	C372.623535,331.307098 371.960815,331.257721 371.298096,331.208344 
	C370.934875,329.520691 370.453125,327.847839 370.239990,326.141449 
	C370.001190,324.229065 370.005402,322.286346 369.909607,320.465424 
	C364.626892,319.407440 364.912170,322.692444 364.859344,325.756470 
	C364.732880,333.092255 366.447998,337.031372 370.191650,337.882050 
	C374.291260,338.813599 377.374146,336.013306 380.647186,328.646301 
	C381.819550,328.071259 382.991913,327.496246 384.224030,326.891907 
	C384.941162,331.061218 385.530792,334.489014 386.933289,337.985962 
	C390.742432,338.460968 391.892365,336.610413 391.677338,333.029999 
	C391.519989,330.409943 391.936920,327.755402 392.876038,325.140503 
	C393.910522,325.057648 394.944977,324.974792 396.147583,325.346954 
	C396.322144,325.629181 396.556061,325.847900 396.944031,326.908997 
	C397.288239,330.354248 397.632446,333.799469 398.161865,337.923309 
	C400.153198,339.511139 401.901703,339.933319 402.993011,337.001740 
	C402.993011,337.001740 402.920471,336.944336 403.475494,336.692078 
	C404.018127,336.103973 404.560791,335.515869 405.518402,335.044128 
	C405.518402,335.044128 405.948944,335.063873 406.003540,335.010925 
	C406.003540,335.010925 405.934265,335.041779 406.144653,335.500092 
	C406.430847,335.654816 406.717041,335.809540 406.998016,336.004242 
M256.901642,331.695770 
	C256.901642,333.950653 256.901642,336.205536 256.901642,340.058411 
	C259.986847,337.968567 261.848816,336.707336 263.990662,335.256500 
	C264.934479,336.265625 266.243835,337.665649 267.738068,339.263306 
	C268.914551,338.251953 269.986969,337.330078 270.011230,337.309204 
	C270.011230,334.451111 269.518799,332.554688 270.095581,331.075104 
	C272.741760,324.287231 270.064667,320.245880 262.853180,320.630524 
	C260.936859,320.732758 259.032959,321.068512 257.049500,321.305908 
	C257.049500,324.210968 257.049500,326.681396 256.296722,329.829529 
	C255.908157,328.209503 255.733978,326.495239 255.074036,324.994537 
	C254.332153,323.307495 253.515381,321.209015 252.091644,320.352478 
	C248.360046,318.107300 242.219070,320.389557 240.021744,324.385040 
	C237.493561,328.982147 238.483215,334.796570 242.148590,336.880859 
	C246.209656,339.190186 251.184036,337.596344 254.135727,332.991333 
	C254.669067,332.159210 254.955429,331.165192 255.517365,330.358459 
	C255.614166,330.219513 256.524628,330.647339 256.901642,331.695770 
M167.446182,324.854462 
	C164.691177,323.164703 162.003021,320.191162 159.167725,320.043518 
	C152.594772,319.701294 145.950714,320.725006 139.195724,321.204865 
	C139.195724,327.140442 139.195724,332.658417 139.195724,337.891785 
	C145.227936,337.891785 150.915146,338.072815 156.584381,337.831696 
	C160.753769,337.654388 164.272079,336.021973 166.040253,331.766602 
	C166.249039,331.264099 167.360687,331.136780 167.885513,331.728149 
	C167.885513,333.695343 167.885513,335.662537 167.885513,338.049744 
	C169.952972,337.757263 171.492630,337.539429 173.040161,337.320465 
	C173.040161,331.367432 173.040161,325.827698 173.040161,320.237793 
	C169.817810,320.003021 167.038055,319.794403 167.446182,324.854462 
M380.372375,273.375122 
	C373.266602,273.375122 366.160828,273.375122 358.430084,273.375122 
	C359.362701,269.145599 359.955139,265.721344 360.893494,262.394653 
	C362.008820,258.440521 361.511292,255.810455 357.305756,253.680649 
	C351.390106,250.684784 345.954529,246.746216 340.285187,243.257019 
	C336.103424,240.683380 331.876190,238.183624 327.211456,235.375366 
	C323.203400,253.811295 319.373871,271.511993 315.501129,289.203217 
	C313.563507,298.054352 318.114716,303.852081 327.180389,303.858704 
	C356.334595,303.880005 385.489044,303.813629 414.642731,303.937256 
	C418.020569,303.951569 419.592682,303.248749 420.353729,299.598022 
	C424.763092,278.447479 429.395294,257.341797 434.180176,236.272751 
	C434.902435,233.092361 433.573212,231.792953 431.372040,230.254028 
	C414.181458,218.235443 397.039520,206.147278 379.890167,194.069748 
	C376.974579,192.016449 377.526825,178.898376 380.590515,177.165497 
	C380.865112,177.010162 381.227844,176.948456 381.549774,176.948013 
	C389.980560,176.936539 398.411346,176.938919 407.336456,176.938919 
	C406.553009,180.710449 405.736877,183.760254 405.364624,186.863297 
	C405.215363,188.107269 405.623810,190.124313 406.488861,190.676483 
	C417.254089,197.548233 428.150208,204.214951 439.516968,211.246292 
	C443.453094,193.243835 447.387238,175.956879 450.949371,158.593597 
	C452.280151,152.106857 447.351746,146.517776 440.342316,146.482315 
	C410.189331,146.329758 380.035034,146.349594 349.882355,146.516083 
	C348.563171,146.523361 346.380310,148.389282 346.073761,149.727142 
	C341.618652,169.169540 337.442596,188.675674 333.123016,208.149536 
	C332.469604,211.095184 333.103607,212.965424 335.773071,214.786636 
	C349.934998,224.448502 363.958313,234.314438 377.985687,244.172226 
	C382.180908,247.120438 388.237549,249.501022 389.790161,253.543869 
	C391.346954,257.597626 388.026398,263.365265 387.442780,268.450531 
	C386.975739,272.519745 385.222351,274.030731 380.372375,273.375122 
M111.500259,146.479584 
	C101.980942,146.479584 92.461624,146.479584 81.886276,146.479584 
	C89.998169,156.766312 97.236877,166.073318 104.682930,175.211349 
	C105.523811,176.243317 107.519028,176.714569 109.004852,176.771637 
	C113.944313,176.961334 118.895592,176.843369 124.248940,176.843369 
	C114.954842,219.369690 105.781807,261.342072 96.491562,303.850769 
	C109.393051,303.850769 121.691505,303.938507 133.983215,303.690857 
	C135.010956,303.670135 136.600372,301.525146 136.907120,300.140717 
	C143.374329,270.952179 149.688766,241.729843 156.046341,212.516998 
	C158.618378,200.698563 161.221741,188.886948 163.781158,177.207657 
	C167.245178,177.207657 170.276642,177.207657 173.513901,177.207657 
	C172.577103,182.106918 171.715714,186.611725 170.777405,191.518829 
	C183.473160,191.518829 195.610916,191.564362 207.746735,191.432877 
	C208.723969,191.422287 210.367798,190.348175 210.556946,189.509933 
	C213.758774,175.320526 216.779053,161.090149 219.923248,146.479614 
	C183.753616,146.479614 148.126953,146.479614 111.500259,146.479584 
M309.853577,176.851639 
	C312.409546,176.851639 314.965515,176.851639 317.750336,176.851639 
	C316.714569,182.116272 315.826477,186.630157 314.897736,191.350647 
	C320.452850,191.350647 325.574097,191.350647 331.152618,191.350647 
	C334.385529,176.475937 337.602997,161.672318 340.821777,146.862671 
	C302.465210,146.862671 264.759796,146.862671 226.341019,146.862671 
	C233.994598,156.592545 241.115067,165.790070 248.460571,174.804245 
	C249.410355,175.969788 251.499634,176.672195 253.103134,176.752853 
	C258.036530,177.001038 262.990356,176.843292 268.377899,176.843292 
	C259.076019,219.421295 249.905136,261.399750 240.632660,303.843201 
	C252.930359,303.843201 264.577606,303.712860 276.218658,303.924133 
	C279.626190,303.985962 280.586365,302.796661 281.273468,299.574829 
	C288.760498,264.466736 296.411285,229.393173 304.141418,194.337540 
	C305.439148,188.452454 307.327606,182.697647 309.853577,176.851639 
M118.339424,337.322479 
	C122.370247,339.050171 124.737152,337.581268 125.339493,333.837799 
	C126.742249,335.191315 127.929039,337.042236 129.580536,337.669250 
	C130.595688,338.054688 133.266525,336.859406 133.569702,335.874115 
	C135.148590,330.742859 136.206085,325.451141 137.534943,319.835632 
	C135.350708,319.835632 133.912918,319.835632 132.473175,319.835632 
	C131.831070,322.599060 131.235748,325.161133 130.339981,329.016205 
	C129.108292,325.131165 128.288361,322.544830 127.536720,320.173950 
	C120.760002,318.612823 123.795692,325.402893 120.799690,327.561646 
	C119.991539,324.945160 119.285957,322.660828 118.480492,320.053040 
	C116.811104,320.550903 115.328209,320.993134 113.889381,321.422241 
	C113.952217,322.283020 113.900368,322.800140 114.037521,323.260986 
	C115.359344,327.702576 116.712975,332.134644 118.339424,337.322479 
M288.586517,335.099487 
	C289.946106,336.045258 291.222412,337.209991 292.724396,337.781525 
	C293.095856,337.922913 294.821838,336.166290 294.863617,335.234589 
	C295.084900,330.297913 294.967560,325.346069 294.967560,320.056976 
	C292.698090,320.196808 291.104889,320.294952 289.392700,320.400421 
	C289.235504,322.342377 289.108521,323.911194 288.932526,326.085693 
	C286.017303,323.270630 284.790222,317.180023 279.411011,321.902252 
	C279.411011,327.166656 279.411011,332.443481 279.411011,337.815308 
	C281.340698,337.815308 283.036865,337.815308 284.702240,337.815308 
	C284.858612,335.435028 284.990143,333.432495 285.177826,330.575745 
	C286.549438,332.422485 287.326874,333.469238 288.586517,335.099487 
M306.449127,319.578522 
	C300.176544,320.437134 296.631531,323.661713 296.075104,329.014740 
	C295.623932,333.355225 297.882294,336.923859 301.644592,337.815491 
	C305.831177,338.807678 310.602722,336.664764 312.021881,332.948334 
	C313.186646,329.898041 313.977234,326.790924 308.871765,326.454926 
	C309.814819,324.672546 310.625824,323.139740 311.645813,321.211975 
	C309.942688,320.623779 308.576202,320.151855 306.449127,319.578522 
M108.867592,335.451416 
	C109.982071,333.473999 111.510513,331.615875 112.121979,329.493530 
	C113.276176,325.487396 112.577141,321.776733 108.194847,320.013916 
	C104.492912,318.524811 99.319855,320.387939 97.139145,323.676727 
	C94.647865,327.433929 94.646820,333.139191 97.429482,335.698395 
	C100.875954,338.868073 104.607841,338.548676 108.867592,335.451416 
M212.535721,337.947144 
	C216.919495,337.525696 219.649826,335.069122 220.288452,330.817261 
	C220.836792,327.166565 220.778992,323.424866 221.017151,319.231842 
	C218.665741,319.601807 217.269455,319.821503 216.285187,319.976379 
	C215.642517,324.194794 215.069855,327.953674 214.497192,331.712555 
	C213.700043,331.672638 212.902878,331.632751 212.105728,331.592834 
	C211.600845,327.821686 211.095978,324.050537 210.553757,320.000488 
	C209.009216,320.345245 207.608078,320.657990 205.961182,321.025574 
	C205.961182,324.254364 205.732742,327.257172 206.019669,330.209961 
	C206.369675,333.812103 207.512390,337.102386 212.535721,337.947144 
M75.995224,333.310425 
	C75.995224,330.695679 75.995224,328.080933 75.995224,325.176514 
	C80.373039,325.522980 81.946175,323.903442 80.332260,319.587128 
	C75.512085,320.043518 70.655449,320.503326 65.559380,320.985809 
	C65.676125,322.967072 65.760353,324.396454 65.840172,325.751068 
	C67.530556,326.017761 68.886261,326.231659 70.499893,326.486237 
	C70.499893,330.460388 70.499893,334.070801 70.499893,337.722382 
	C73.543510,338.007050 76.412552,338.564423 75.995224,333.310425 
M204.913757,321.885590 
	C204.102249,321.211914 203.265961,319.934143 202.483368,319.966248 
	C198.504456,320.129364 194.538483,320.622467 190.571808,321.036896 
	C190.310120,321.064209 190.080475,321.398499 189.583328,321.787872 
	C189.666351,323.053680 189.760162,324.483948 189.850571,325.862152 
	C191.460236,326.018066 192.719940,326.140106 194.423157,326.305084 
	C194.423157,330.245941 194.423157,333.994995 194.423157,338.125793 
	C196.512573,337.869720 198.090179,337.676361 199.965973,337.446442 
	C199.965973,333.297516 199.965973,329.518158 199.965973,326.882446 
	C202.133469,325.047791 203.523300,323.871399 204.913757,321.885590 
M226.888046,330.596741 
	C226.888046,333.014252 226.888046,335.431732 226.888046,338.134796 
	C229.009857,337.844452 230.444397,337.648163 232.411575,337.378998 
	C232.411575,333.308258 232.411575,329.419037 232.411575,325.542419 
	C234.321014,325.159668 235.685532,324.886139 236.973907,324.627869 
	C236.973907,322.787933 236.973907,321.360107 236.973907,319.599945 
	C231.936432,320.063629 227.194016,320.500153 222.363205,320.944794 
	C222.363205,322.794189 222.363205,324.324371 222.363205,326.091339 
	C225.501572,325.583771 227.698547,325.977081 226.888046,330.596741 
M82.014114,328.547974 
	C82.014114,331.621918 82.014114,334.695831 82.014114,338.086975 
	C86.438034,337.625183 90.137688,337.239014 93.845016,336.852020 
	C93.845016,335.034729 93.845016,333.645294 93.845016,331.916992 
	C91.538918,331.916992 89.486115,331.916992 87.124039,331.916992 
	C87.124039,327.826172 87.124039,324.078918 87.124039,320.279388 
	C79.749123,319.154053 82.773376,324.624695 82.014114,328.547974 
M272.134613,327.596832 
	C272.134613,330.970184 272.134613,334.343506 272.134613,338.178650 
	C274.675812,337.793488 276.235596,337.557098 277.729675,337.330627 
	C277.729675,331.351105 277.729675,325.798309 277.729675,320.457397 
	C271.030914,318.518005 272.244812,323.145569 272.134613,327.596832 
z"/>
<path fill="#1B91C7" opacity="1.000000" stroke="none" 
	d="
M380.850708,273.375122 
	C385.222351,274.030731 386.975739,272.519745 387.442780,268.450531 
	C388.026398,263.365265 391.346954,257.597626 389.790161,253.543869 
	C388.237549,249.501022 382.180908,247.120438 377.985687,244.172226 
	C363.958313,234.314438 349.934998,224.448502 335.773071,214.786636 
	C333.103607,212.965424 332.469604,211.095184 333.123016,208.149536 
	C337.442596,188.675674 341.618652,169.169540 346.073761,149.727142 
	C346.380310,148.389282 348.563171,146.523361 349.882355,146.516083 
	C380.035034,146.349594 410.189331,146.329758 440.342316,146.482315 
	C447.351746,146.517776 452.280151,152.106857 450.949371,158.593597 
	C447.387238,175.956879 443.453094,193.243835 439.516968,211.246292 
	C428.150208,204.214951 417.254089,197.548233 406.488861,190.676483 
	C405.623810,190.124313 405.215363,188.107269 405.364624,186.863297 
	C405.736877,183.760254 406.553009,180.710449 407.336456,176.938919 
	C398.411346,176.938919 389.980560,176.936539 381.549774,176.948013 
	C381.227844,176.948456 380.865112,177.010162 380.590515,177.165497 
	C377.526825,178.898376 376.974579,192.016449 379.890167,194.069748 
	C397.039520,206.147278 414.181458,218.235443 431.372040,230.254028 
	C433.573212,231.792953 434.902435,233.092361 434.180176,236.272751 
	C429.395294,257.341797 424.763092,278.447479 420.353729,299.598022 
	C419.592682,303.248749 418.020569,303.951569 414.642731,303.937256 
	C385.489044,303.813629 356.334595,303.880005 327.180389,303.858704 
	C318.114716,303.852081 313.563507,298.054352 315.501129,289.203217 
	C319.373871,271.511993 323.203400,253.811295 327.211456,235.375366 
	C331.876190,238.183624 336.103424,240.683380 340.285187,243.257019 
	C345.954529,246.746216 351.390106,250.684784 357.305756,253.680649 
	C361.511292,255.810455 362.008820,258.440521 360.893494,262.394653 
	C359.955139,265.721344 359.362701,269.145599 358.430084,273.375122 
	C366.160828,273.375122 373.266602,273.375122 380.850708,273.375122 
z"/>
<path fill="#040404" opacity="1.000000" stroke="none" 
	d="
M112.000267,146.479599 
	C148.126953,146.479614 183.753616,146.479614 219.923248,146.479614 
	C216.779053,161.090149 213.758774,175.320526 210.556946,189.509933 
	C210.367798,190.348175 208.723969,191.422287 207.746735,191.432877 
	C195.610916,191.564362 183.473160,191.518829 170.777405,191.518829 
	C171.715714,186.611725 172.577103,182.106918 173.513901,177.207657 
	C170.276642,177.207657 167.245178,177.207657 163.781158,177.207657 
	C161.221741,188.886948 158.618378,200.698563 156.046341,212.516998 
	C149.688766,241.729843 143.374329,270.952179 136.907120,300.140717 
	C136.600372,301.525146 135.010956,303.670135 133.983215,303.690857 
	C121.691505,303.938507 109.393051,303.850769 96.491562,303.850769 
	C105.781807,261.342072 114.954842,219.369690 124.248940,176.843369 
	C118.895592,176.843369 113.944313,176.961334 109.004852,176.771637 
	C107.519028,176.714569 105.523811,176.243317 104.682930,175.211349 
	C97.236877,166.073318 89.998169,156.766312 81.886276,146.479584 
	C92.461624,146.479584 101.980942,146.479584 112.000267,146.479599 
z"/>
<path fill="#040404" opacity="1.000000" stroke="none" 
	d="
M309.398346,176.867126 
	C307.327606,182.697647 305.439148,188.452454 304.141418,194.337540 
	C296.411285,229.393173 288.760498,264.466736 281.273468,299.574829 
	C280.586365,302.796661 279.626190,303.985962 276.218658,303.924133 
	C264.577606,303.712860 252.930359,303.843201 240.632660,303.843201 
	C249.905136,261.399750 259.076019,219.421295 268.377899,176.843292 
	C262.990356,176.843292 258.036530,177.001038 253.103134,176.752853 
	C251.499634,176.672195 249.410355,175.969788 248.460571,174.804245 
	C241.115067,165.790070 233.994598,156.592545 226.341019,146.862671 
	C264.759796,146.862671 302.465210,146.862671 340.821777,146.862671 
	C337.602997,161.672318 334.385529,176.475937 331.152618,191.350647 
	C325.574097,191.350647 320.452850,191.350647 314.897736,191.350647 
	C315.826477,186.630157 316.714569,182.116272 317.750336,176.851639 
	C314.965515,176.851639 312.409546,176.851639 309.398346,176.867126 
z"/>
<path fill="#0D0D0D" opacity="1.000000" stroke="none" 
	d="
M168.053802,330.835510 
	C167.360687,331.136780 166.249039,331.264099 166.040253,331.766602 
	C164.272079,336.021973 160.753769,337.654388 156.584381,337.831696 
	C150.915146,338.072815 145.227936,337.891785 139.195724,337.891785 
	C139.195724,332.658417 139.195724,327.140442 139.195724,321.204865 
	C145.950714,320.725006 152.594772,319.701294 159.167725,320.043518 
	C162.003021,320.191162 164.691177,323.164703 167.755722,324.787628 
	C168.057373,325.107330 168.049500,325.493866 167.682861,325.539612 
	C167.028824,326.619598 166.733536,328.040344 166.438248,329.461121 
	C166.974731,329.353333 167.511215,329.245514 168.057709,329.420593 
	C168.063065,330.080841 168.058426,330.458160 168.053802,330.835510 
M157.118347,330.205536 
	C157.971939,330.716339 158.825516,331.227142 159.679077,331.737976 
	C160.331894,330.351379 161.667252,328.837006 161.438522,327.615479 
	C161.225433,326.477417 159.348129,325.650970 157.401764,324.012482 
	C157.251343,326.790894 157.181290,328.084564 157.118347,330.205536 
M153.013840,327.587097 
	C153.013840,326.081512 153.013840,324.575958 153.013840,322.256256 
	C148.964478,329.115753 148.968384,330.273010 153.012054,333.494019 
	C153.012054,331.567902 153.012054,329.991455 153.013840,327.587097 
z"/>
<path fill="#0E0E0E" opacity="1.000000" stroke="none" 
	d="
M118.198471,336.945984 
	C116.712975,332.134644 115.359344,327.702576 114.037521,323.260986 
	C113.900368,322.800140 113.952217,322.283020 113.889381,321.422241 
	C115.328209,320.993134 116.811104,320.550903 118.480492,320.053040 
	C119.285957,322.660828 119.991539,324.945160 120.799690,327.561646 
	C123.795692,325.402893 120.760002,318.612823 127.536720,320.173950 
	C128.288361,322.544830 129.108292,325.131165 130.339981,329.016205 
	C131.235748,325.161133 131.831070,322.599060 132.473175,319.835632 
	C133.912918,319.835632 135.350708,319.835632 137.534943,319.835632 
	C136.206085,325.451141 135.148590,330.742859 133.569702,335.874115 
	C133.266525,336.859406 130.595688,338.054688 129.580536,337.669250 
	C127.929039,337.042236 126.742249,335.191315 125.339493,333.837799 
	C124.737152,337.581268 122.370247,339.050171 118.198471,336.945984 
z"/>
<path fill="#2D93C1" opacity="1.000000" stroke="none" 
	d="
M436.892883,337.874084 
	C434.055389,336.102478 431.217926,334.330872 428.327332,332.526123 
	C428.217590,333.644287 428.023407,335.622864 427.789734,338.003479 
	C426.204620,338.107758 424.650421,338.210052 422.709381,338.337769 
	C422.508240,335.498566 422.336517,333.074707 422.100159,329.738434 
	C421.119690,331.198029 420.559113,332.032532 419.625610,332.657898 
	C421.374023,322.934448 419.214783,320.509583 409.935883,321.953522 
	C409.290497,322.053955 408.615814,321.966095 407.954742,321.965820 
	C413.744751,318.127319 417.300476,318.574829 421.452606,323.664612 
	C424.810516,318.968353 426.389496,319.107941 431.807343,324.949463 
	C432.242065,321.285004 433.581116,318.825958 437.832825,321.197906 
	C437.659271,327.252838 437.276062,332.563477 436.892883,337.874084 
z"/>
<path fill="#111111" opacity="1.000000" stroke="none" 
	d="
M288.345428,334.807739 
	C287.326874,333.469238 286.549438,332.422485 285.177826,330.575745 
	C284.990143,333.432495 284.858612,335.435028 284.702240,337.815308 
	C283.036865,337.815308 281.340698,337.815308 279.411011,337.815308 
	C279.411011,332.443481 279.411011,327.166656 279.411011,321.902252 
	C284.790222,317.180023 286.017303,323.270630 288.932526,326.085693 
	C289.108521,323.911194 289.235504,322.342377 289.392700,320.400421 
	C291.104889,320.294952 292.698090,320.196808 294.967560,320.056976 
	C294.967560,325.346069 295.084900,330.297913 294.863617,335.234589 
	C294.821838,336.166290 293.095856,337.922913 292.724396,337.781525 
	C291.222412,337.209991 289.946106,336.045258 288.345428,334.807739 
z"/>
<path fill="#101010" opacity="1.000000" stroke="none" 
	d="
M306.829407,319.629211 
	C308.576202,320.151855 309.942688,320.623779 311.645813,321.211975 
	C310.625824,323.139740 309.814819,324.672546 308.871765,326.454926 
	C313.977234,326.790924 313.186646,329.898041 312.021881,332.948334 
	C310.602722,336.664764 305.831177,338.807678 301.644592,337.815491 
	C297.882294,336.923859 295.623932,333.355225 296.075104,329.014740 
	C296.631531,323.661713 300.176544,320.437134 306.829407,319.629211 
z"/>
<path fill="#3594BF" opacity="1.000000" stroke="none" 
	d="
M335.991272,336.014496 
	C334.932159,335.414154 333.872986,334.813812 332.507599,334.039886 
	C330.092255,337.827728 326.627472,340.084290 321.886108,338.942413 
	C320.484711,338.604950 318.661987,337.563324 318.231110,336.400269 
	C317.864746,335.411438 319.223083,333.783630 319.396301,333.392212 
	C319.396301,329.533020 318.398865,325.830597 319.718811,323.372681 
	C320.734833,321.480743 324.602875,320.583069 327.316437,320.287689 
	C330.158752,319.978210 332.015839,321.479187 330.516968,324.994476 
	C330.068878,326.045410 330.722778,327.566223 331.971985,328.795258 
	C332.761017,327.287903 333.550079,325.780548 334.674316,324.488647 
	C335.336761,328.474243 335.664032,332.244354 335.991272,336.014496 
z"/>
<path fill="#0E0E0E" opacity="1.000000" stroke="none" 
	d="
M108.576752,335.690979 
	C104.607841,338.548676 100.875954,338.868073 97.429482,335.698395 
	C94.646820,333.139191 94.647865,327.433929 97.139145,323.676727 
	C99.319855,320.387939 104.492912,318.524811 108.194847,320.013916 
	C112.577141,321.776733 113.276176,325.487396 112.121979,329.493530 
	C111.510513,331.615875 109.982071,333.473999 108.576752,335.690979 
M106.134361,330.516083 
	C105.977875,328.990448 105.821388,327.464783 105.664902,325.939148 
	C104.331367,326.255798 102.520195,326.162262 101.797638,327.003571 
	C101.064499,327.857269 101.406189,329.633972 101.277130,331.006439 
	C102.712151,331.043884 104.147171,331.081329 106.134361,330.516083 
z"/>
<path fill="#0A0A0A" opacity="1.000000" stroke="none" 
	d="
M257.049500,329.151825 
	C257.049500,326.681396 257.049500,324.210968 257.049500,321.305908 
	C259.032959,321.068512 260.936859,320.732758 262.853180,320.630524 
	C270.064667,320.245880 272.741760,324.287231 270.095581,331.075104 
	C269.518799,332.554688 270.011230,334.451111 270.011230,337.309204 
	C269.986969,337.330078 268.914551,338.251953 267.738068,339.263306 
	C266.243835,337.665649 264.934479,336.265625 263.990662,335.256500 
	C261.848816,336.707336 259.986847,337.968567 256.901642,340.058411 
	C256.901642,336.205536 256.901642,333.950653 256.976166,330.977661 
	C257.050293,329.890320 257.049896,329.521057 257.049500,329.151825 
z"/>
<path fill="#0D0D0D" opacity="1.000000" stroke="none" 
	d="
M256.673096,329.490662 
	C257.049896,329.521057 257.050293,329.890320 257.054962,330.536438 
	C256.524628,330.647339 255.614166,330.219513 255.517365,330.358459 
	C254.955429,331.165192 254.669067,332.159210 254.135727,332.991333 
	C251.184036,337.596344 246.209656,339.190186 242.148590,336.880859 
	C238.483215,334.796570 237.493561,328.982147 240.021744,324.385040 
	C242.219070,320.389557 248.360046,318.107300 252.091644,320.352478 
	C253.515381,321.209015 254.332153,323.307495 255.074036,324.994537 
	C255.733978,326.495239 255.908157,328.209503 256.673096,329.490662 
M245.998901,326.025543 
	C245.507095,327.684906 245.015289,329.344299 244.523483,331.003662 
	C245.543823,331.301086 247.012787,332.164856 247.494919,331.782898 
	C248.643311,330.873169 249.325409,329.374817 250.195847,328.114227 
	C249.067383,327.341278 247.938919,326.568329 245.998901,326.025543 
z"/>
<path fill="#0D0D0D" opacity="1.000000" stroke="none" 
	d="
M212.146729,337.945068 
	C207.512390,337.102386 206.369675,333.812103 206.019669,330.209961 
	C205.732742,327.257172 205.961182,324.254364 205.961182,321.025574 
	C207.608078,320.657990 209.009216,320.345245 210.553757,320.000488 
	C211.095978,324.050537 211.600845,327.821686 212.105728,331.592834 
	C212.902878,331.632751 213.700043,331.672638 214.497192,331.712555 
	C215.069855,327.953674 215.642517,324.194794 216.285187,319.976379 
	C217.269455,319.821503 218.665741,319.601807 221.017151,319.231842 
	C220.778992,323.424866 220.836792,327.166565 220.288452,330.817261 
	C219.649826,335.069122 216.919495,337.525696 212.146729,337.945068 
z"/>
<path fill="#2D93C1" opacity="1.000000" stroke="none" 
	d="
M380.000122,328.972778 
	C377.374146,336.013306 374.291260,338.813599 370.191650,337.882050 
	C366.447998,337.031372 364.732880,333.092255 364.859344,325.756470 
	C364.912170,322.692444 364.626892,319.407440 369.909607,320.465424 
	C370.005402,322.286346 370.001190,324.229065 370.239990,326.141449 
	C370.453125,327.847839 370.934875,329.520691 371.298096,331.208344 
	C371.960815,331.257721 372.623535,331.307098 373.286255,331.356506 
	C373.717712,328.610992 374.417328,325.875366 374.518921,323.117706 
	C374.678955,318.775238 376.481964,318.284210 379.871643,321.119873 
	C379.957397,324.247406 379.978760,326.610077 380.000122,328.972778 
z"/>
<path fill="#2D93C1" opacity="1.000000" stroke="none" 
	d="
M441.066162,322.049042 
	C444.554230,321.304840 448.042328,320.560669 451.530396,319.816467 
	C451.845703,320.276489 452.160980,320.736481 452.476257,321.196472 
	C450.706146,324.743286 451.506744,327.784729 452.832489,331.204987 
	C454.294434,334.976746 450.509155,338.615173 445.827423,338.688660 
	C444.202057,338.714172 442.568542,338.221130 440.456848,337.528259 
	C440.092255,335.835907 440.209625,334.580231 440.360657,332.964233 
	C442.971344,332.964233 445.179321,332.964233 447.387299,332.964233 
	C439.144379,330.890045 437.951294,328.940521 441.066162,322.049042 
z"/>
<path fill="#3899C4" opacity="1.000000" stroke="none" 
	d="
M347.985565,321.176727 
	C348.819122,321.936951 349.652710,322.697144 350.160645,323.160370 
	C351.950378,321.916260 353.780548,320.644012 356.805176,318.541473 
	C356.805176,323.979675 356.805176,327.707733 356.805176,331.780853 
	C359.242920,331.921844 361.151764,332.032288 363.033417,332.141113 
	C364.398773,337.378052 362.763733,338.207031 351.652313,337.679718 
	C351.459076,335.413727 351.258270,333.059174 350.993164,329.950836 
	C349.938507,331.570160 349.264130,332.605591 348.343994,333.424438 
	C348.060669,329.197479 348.023132,325.187103 347.985565,321.176727 
z"/>
<path fill="#111111" opacity="1.000000" stroke="none" 
	d="
M75.991547,333.760132 
	C76.412552,338.564423 73.543510,338.007050 70.499893,337.722382 
	C70.499893,334.070801 70.499893,330.460388 70.499893,326.486237 
	C68.886261,326.231659 67.530556,326.017761 65.840172,325.751068 
	C65.760353,324.396454 65.676125,322.967072 65.559380,320.985809 
	C70.655449,320.503326 75.512085,320.043518 80.332260,319.587128 
	C81.946175,323.903442 80.373039,325.522980 75.995224,325.176514 
	C75.995224,328.080933 75.995224,330.695679 75.991547,333.760132 
z"/>
<path fill="#101010" opacity="1.000000" stroke="none" 
	d="
M204.913452,322.290283 
	C203.523300,323.871399 202.133469,325.047791 199.965973,326.882446 
	C199.965973,329.518158 199.965973,333.297516 199.965973,337.446442 
	C198.090179,337.676361 196.512573,337.869720 194.423157,338.125793 
	C194.423157,333.994995 194.423157,330.245941 194.423157,326.305084 
	C192.719940,326.140106 191.460236,326.018066 189.850571,325.862152 
	C189.760162,324.483948 189.666351,323.053680 189.583328,321.787872 
	C190.080475,321.398499 190.310120,321.064209 190.571808,321.036896 
	C194.538483,320.622467 198.504456,320.129364 202.483368,319.966248 
	C203.265961,319.934143 204.102249,321.211914 204.913452,322.290283 
z"/>
<path fill="#2D93C1" opacity="1.000000" stroke="none" 
	d="
M347.872253,321.038452 
	C348.023132,325.187103 348.060669,329.197479 348.057251,333.614685 
	C348.016296,334.021545 348.000916,334.007507 347.780762,334.114044 
	C347.279602,334.426392 347.099152,334.698822 347.019196,335.037811 
	C347.019196,335.037811 347.000793,334.998505 346.606812,335.051270 
	C342.803864,335.405914 339.394897,335.707764 335.985931,336.009613 
	C335.985931,336.009613 335.998291,336.000031 335.994781,336.007263 
	C335.664032,332.244354 335.336761,328.474243 335.003723,324.352295 
	C334.997955,324.000458 335.000000,324.000000 335.324402,323.958374 
	C336.090668,323.262390 336.532562,322.608002 336.974457,321.953613 
	C336.974457,321.953613 336.977325,322.007233 337.274231,321.975708 
	C338.023438,321.576691 338.475708,321.209198 338.928009,320.841705 
	C338.928009,320.841705 338.979828,320.942871 339.399109,320.953735 
	C342.347687,320.923523 344.876953,320.882385 347.406250,320.841278 
	C347.406250,320.841278 347.758911,320.900208 347.872253,321.038452 
M342.941925,331.566498 
	C343.537994,330.027222 344.134064,328.487976 344.730164,326.948730 
	C343.569061,326.625183 342.122345,325.723114 341.317261,326.120575 
	C340.246643,326.649170 338.883698,328.381622 339.092743,329.247772 
	C339.349335,330.311096 341.098938,331.014099 342.941925,331.566498 
z"/>
<path fill="#080808" opacity="1.000000" stroke="none" 
	d="
M226.888824,330.132477 
	C227.698547,325.977081 225.501572,325.583771 222.363205,326.091339 
	C222.363205,324.324371 222.363205,322.794189 222.363205,320.944794 
	C227.194016,320.500153 231.936432,320.063629 236.973907,319.599945 
	C236.973907,321.360107 236.973907,322.787933 236.973907,324.627869 
	C235.685532,324.886139 234.321014,325.159668 232.411575,325.542419 
	C232.411575,329.419037 232.411575,333.308258 232.411575,337.378998 
	C230.444397,337.648163 229.009857,337.844452 226.888046,338.134796 
	C226.888046,335.431732 226.888046,333.014252 226.888824,330.132477 
z"/>
<path fill="#2791C2" opacity="1.000000" stroke="none" 
	d="
M407.971436,321.976440 
	C408.615814,321.966095 409.290497,322.053955 409.935883,321.953522 
	C419.214783,320.509583 421.374023,322.934448 419.348206,332.854492 
	C419.443695,333.260193 419.399323,333.244904 419.060791,333.294922 
	C418.481873,333.897583 418.241486,334.450195 418.001099,335.002808 
	C417.795044,335.281128 417.589020,335.559448 416.679749,335.908752 
	C412.996033,335.982727 410.015594,335.985687 407.035126,335.988617 
	C407.035126,335.988617 406.998016,336.004242 406.884155,335.767334 
	C406.553070,335.262451 406.274414,335.099548 405.934265,335.041779 
	C405.934265,335.041779 406.003540,335.010925 405.993134,334.573669 
	C405.978363,330.732544 405.973999,327.328644 405.969604,323.924774 
	C406.077362,323.612091 406.267059,323.361450 406.985840,322.974030 
	C407.614227,322.501160 407.795441,322.227142 407.976654,321.953125 
	C407.976654,321.953125 407.988129,321.987061 407.971436,321.976440 
M414.284790,325.867340 
	C411.463379,325.564484 409.632660,326.700165 410.073181,329.646393 
	C410.205200,330.529358 412.341248,332.000336 413.046356,331.751129 
	C415.640442,330.834259 417.106812,328.999908 414.284790,325.867340 
z"/>
<path fill="#0D0D0D" opacity="1.000000" stroke="none" 
	d="
M82.015213,328.073547 
	C82.773376,324.624695 79.749123,319.154053 87.124039,320.279388 
	C87.124039,324.078918 87.124039,327.826172 87.124039,331.916992 
	C89.486115,331.916992 91.538918,331.916992 93.845016,331.916992 
	C93.845016,333.645294 93.845016,335.034729 93.845016,336.852020 
	C90.137688,337.239014 86.438034,337.625183 82.014114,338.086975 
	C82.014114,334.695831 82.014114,331.621918 82.015213,328.073547 
z"/>
<path fill="#181818" opacity="1.000000" stroke="none" 
	d="
M272.125092,327.125244 
	C272.244812,323.145569 271.030914,318.518005 277.729675,320.457397 
	C277.729675,325.798309 277.729675,331.351105 277.729675,337.330627 
	C276.235596,337.557098 274.675812,337.793488 272.134613,338.178650 
	C272.134613,334.343506 272.134613,330.970184 272.125092,327.125244 
z"/>
<path fill="#080808" opacity="1.000000" stroke="none" 
	d="
M167.969650,331.281830 
	C168.058426,330.458160 168.063065,330.080841 167.967484,329.018433 
	C167.925385,327.515747 167.983505,326.698059 168.041611,325.880402 
	C168.049500,325.493866 168.057373,325.107330 168.056244,324.430969 
	C167.038055,319.794403 169.817810,320.003021 173.040161,320.237793 
	C173.040161,325.827698 173.040161,331.367432 173.040161,337.320465 
	C171.492630,337.539429 169.952972,337.757263 167.885513,338.049744 
	C167.885513,335.662537 167.885513,333.695343 167.969650,331.281830 
z"/>
<path fill="#2791C2" opacity="1.000000" stroke="none" 
	d="
M397.976654,337.244720 
	C397.632446,333.799469 397.288239,330.354248 396.956238,326.029175 
	C396.022614,319.505890 400.134552,321.266174 402.919525,321.083984 
	C402.919525,321.083984 403.050964,321.548401 403.043610,322.236938 
	C402.997681,327.598419 402.959076,332.271393 402.920471,336.944336 
	C402.920471,336.944336 402.993011,337.001740 402.548676,336.969604 
	C400.728455,337.039886 399.352539,337.142303 397.976654,337.244720 
z"/>
<path fill="#C8F5FD" opacity="1.000000" stroke="none" 
	d="
M403.078979,320.730469 
	C400.134552,321.266174 396.022614,319.505890 396.908936,325.576233 
	C396.556061,325.847900 396.322144,325.629181 396.104156,324.684662 
	C396.577026,321.026794 395.729462,319.416168 392.291168,319.934326 
	C390.566650,320.194214 388.774414,320.004822 387.012817,320.018646 
	C389.072968,319.667755 391.204956,319.538940 393.172821,318.902679 
	C395.084290,318.284607 396.904175,317.268524 398.618591,316.194641 
	C399.841797,315.428406 400.823975,314.277313 401.913696,313.297974 
	C402.590057,314.866638 403.412231,316.394135 403.872498,318.023834 
	C404.062073,318.694977 403.473236,319.585938 403.078979,320.730469 
z"/>
<path fill="#3594BF" opacity="1.000000" stroke="none" 
	d="
M392.097900,325.116211 
	C391.936920,327.755402 391.519989,330.409943 391.677338,333.029999 
	C391.892365,336.610413 390.742432,338.460968 386.489075,337.497620 
	C386.044861,333.469208 386.044861,329.929108 386.044861,327.653931 
	C383.804016,325.946564 382.510254,324.960815 381.611816,323.985657 
	C385.762207,323.906647 387.334625,325.661072 387.062744,329.464203 
	C386.911926,331.574158 387.375549,333.728088 387.562256,335.862183 
	C388.226318,335.834167 388.890350,335.806122 389.554382,335.778107 
	C389.704163,333.622955 389.656036,331.428894 390.069489,329.325592 
	C390.372711,327.782867 391.281311,326.359131 391.964111,324.941223 
	C392.008057,325.000031 392.097900,325.116211 392.097900,325.116211 
z"/>
<path fill="#C8F5FD" opacity="1.000000" stroke="none" 
	d="
M440.752930,322.010498 
	C437.951294,328.940521 439.144379,330.890045 447.387299,332.964233 
	C445.179321,332.964233 442.971344,332.964233 440.360657,332.964233 
	C440.209625,334.580231 440.092255,335.835907 440.071869,337.484802 
	C439.348083,337.912964 438.527344,337.947906 437.299744,337.928467 
	C437.276062,332.563477 437.659271,327.252838 438.086945,321.480133 
	C438.900818,321.335999 439.670258,321.653961 440.752930,322.010498 
z"/>
<path fill="#3594BF" opacity="1.000000" stroke="none" 
	d="
M386.732025,320.100281 
	C388.774414,320.004822 390.566650,320.194214 392.291168,319.934326 
	C395.729462,319.416168 396.577026,321.026794 396.020081,324.457153 
	C394.944977,324.974792 393.910522,325.057648 392.486969,325.128357 
	C392.097900,325.116211 392.008057,325.000031 392.224213,324.703491 
	C393.226837,323.721558 394.013336,323.036102 394.799805,322.350708 
	C393.867126,321.958282 392.921021,321.203339 392.004211,321.237427 
	C388.414429,321.370758 384.833893,321.753265 381.191650,321.805664 
	C381.133362,321.568176 381.131714,321.079071 381.131714,321.079071 
	C381.131714,321.079071 381.575958,320.965088 382.131897,320.937408 
	C383.554230,320.669006 384.420654,320.428314 385.287048,320.187622 
	C385.675110,320.185699 386.063171,320.183777 386.732025,320.100281 
z"/>
<path fill="#C8F5FD" opacity="1.000000" stroke="none" 
	d="
M380.869843,321.046509 
	C381.131714,321.079071 381.133362,321.568176 381.121826,322.124023 
	C381.145691,323.111572 381.181091,323.543335 381.216522,323.975067 
	C382.510254,324.960815 383.804016,325.946564 386.044861,327.653931 
	C386.044861,329.929108 386.044861,333.469208 386.082642,337.463043 
	C385.530792,334.489014 384.941162,331.061218 384.224030,326.891907 
	C382.991913,327.496246 381.819550,328.071259 380.323669,328.809540 
	C379.978760,326.610077 379.957397,324.247406 380.008118,321.447845 
	C380.256073,321.011963 380.432007,321.012939 380.869843,321.046509 
z"/>
<path fill="#C8F5FD" opacity="1.000000" stroke="none" 
	d="
M403.197998,336.818207 
	C402.959076,332.271393 402.997681,327.598419 403.116455,322.466980 
	C403.662445,322.602081 404.128265,323.195679 404.815948,324.333527 
	C405.059692,328.227783 405.081573,331.577789 405.103455,334.927795 
	C404.560791,335.515869 404.018127,336.103973 403.197998,336.818207 
z"/>
<path fill="#3594BF" opacity="1.000000" stroke="none" 
	d="
M336.193665,336.316223 
	C339.394897,335.707764 342.803864,335.405914 346.624146,335.064484 
	C343.934723,338.511963 340.353363,338.800476 336.193665,336.316223 
z"/>
<path fill="#2D93C1" opacity="1.000000" stroke="none" 
	d="
M405.310913,334.985962 
	C405.081573,331.577789 405.059692,328.227783 405.066650,324.471954 
	C405.095459,324.066101 405.524536,323.945831 405.747070,323.935303 
	C405.973999,327.328644 405.978363,330.732544 405.965820,334.600159 
	C405.948944,335.063873 405.518402,335.044128 405.310913,334.985962 
z"/>
<path fill="#2D93C1" opacity="1.000000" stroke="none" 
	d="
M407.233032,336.296814 
	C410.015594,335.985687 412.996033,335.982727 416.419678,335.967163 
	C413.893890,338.709198 410.718658,338.472565 407.233032,336.296814 
z"/>
<path fill="#3899C4" opacity="1.000000" stroke="none" 
	d="
M347.171478,320.559326 
	C344.876953,320.882385 342.347687,320.923523 339.350342,320.924561 
	C341.567108,320.682129 344.251892,320.479767 347.171478,320.559326 
z"/>
<path fill="#C8F5FD" opacity="1.000000" stroke="none" 
	d="
M398.069275,337.584015 
	C399.352539,337.142303 400.728455,337.039886 402.520416,336.933105 
	C401.901703,339.933319 400.153198,339.511139 398.069275,337.584015 
z"/>
<path fill="#3594BF" opacity="1.000000" stroke="none" 
	d="
M336.649414,321.993439 
	C336.532562,322.608002 336.090668,323.262390 335.324677,323.957489 
	C335.441833,323.343201 335.883087,322.688232 336.649414,321.993439 
z"/>
<path fill="#C8F5FD" opacity="1.000000" stroke="none" 
	d="
M384.936829,320.105286 
	C384.420654,320.428314 383.554230,320.669006 382.345886,320.854919 
	C382.864807,320.541077 383.725708,320.282013 384.936829,320.105286 
z"/>
<path fill="#2D93C1" opacity="1.000000" stroke="none" 
	d="
M418.278137,334.894257 
	C418.241486,334.450195 418.481873,333.897583 419.037476,333.294495 
	C419.086823,333.757904 418.820984,334.271790 418.278137,334.894257 
z"/>
<path fill="#3899C4" opacity="1.000000" stroke="none" 
	d="
M338.623596,320.856659 
	C338.475708,321.209198 338.023438,321.576691 337.258789,321.953522 
	C337.404022,321.599121 337.861603,321.235382 338.623596,320.856659 
z"/>
<path fill="#2D93C1" opacity="1.000000" stroke="none" 
	d="
M407.724487,322.024841 
	C407.795441,322.227142 407.614227,322.501160 407.205750,322.880615 
	C407.143127,322.689575 407.307739,322.393066 407.724487,322.024841 
z"/>
<path fill="#3594BF" opacity="1.000000" stroke="none" 
	d="
M347.270233,334.962524 
	C347.099152,334.698822 347.279602,334.426392 347.785828,334.113770 
	C347.847809,334.300354 347.684540,334.593781 347.270233,334.962524 
z"/>
<path fill="#2D93C1" opacity="1.000000" stroke="none" 
	d="
M406.039459,335.270935 
	C406.274414,335.099548 406.553070,335.262451 406.886749,335.747375 
	C406.717041,335.809540 406.430847,335.654816 406.039459,335.270935 
z"/>
<path fill="#F3F3F3" opacity="1.000000" stroke="none" 
	d="
M157.114807,329.791870 
	C157.181290,328.084564 157.251343,326.790894 157.401764,324.012482 
	C159.348129,325.650970 161.225433,326.477417 161.438522,327.615479 
	C161.667252,328.837006 160.331894,330.351379 159.679077,331.737976 
	C158.825516,331.227142 157.971939,330.716339 157.114807,329.791870 
z"/>
<path fill="#101010" opacity="1.000000" stroke="none" 
	d="
M153.012939,328.001068 
	C153.012054,329.991455 153.012054,331.567902 153.012054,333.494019 
	C148.968384,330.273010 148.964478,329.115753 153.013840,322.256256 
	C153.013840,324.575958 153.013840,326.081512 153.012939,328.001068 
z"/>
<path fill="#FEFFFF" opacity="1.000000" stroke="none" 
	d="
M167.682861,325.539612 
	C167.983505,326.698059 167.925385,327.515747 167.957489,328.735565 
	C167.511215,329.245514 166.974731,329.353333 166.438248,329.461121 
	C166.733536,328.040344 167.028824,326.619598 167.682861,325.539612 
z"/>
<path fill="#F3F3F3" opacity="1.000000" stroke="none" 
	d="
M105.858276,330.817444 
	C104.147171,331.081329 102.712151,331.043884 101.277130,331.006439 
	C101.406189,329.633972 101.064499,327.857269 101.797638,327.003571 
	C102.520195,326.162262 104.331367,326.255798 105.664902,325.939148 
	C105.821388,327.464783 105.977875,328.990448 105.858276,330.817444 
z"/>
<path fill="#F3F3F3" opacity="1.000000" stroke="none" 
	d="
M246.404678,325.910461 
	C247.938919,326.568329 249.067383,327.341278 250.195862,328.114227 
	C249.325409,329.374817 248.643311,330.873169 247.494919,331.782898 
	C247.012787,332.164856 245.543823,331.301086 244.523499,331.003662 
	C245.015289,329.344299 245.507095,327.684906 246.404678,325.910461 
z"/>
<path fill="#E2FCFE" opacity="1.000000" stroke="none" 
	d="
M342.572540,331.719666 
	C341.098938,331.014099 339.349335,330.311096 339.092743,329.247772 
	C338.883698,328.381622 340.246643,326.649170 341.317261,326.120575 
	C342.122345,325.723114 343.569061,326.625183 344.730164,326.948730 
	C344.134064,328.487976 343.537994,330.027222 342.572540,331.719666 
z"/>
<path fill="#E2FCFE" opacity="1.000000" stroke="none" 
	d="
M414.660339,326.019714 
	C417.106812,328.999908 415.640442,330.834259 413.046356,331.751129 
	C412.341248,332.000336 410.205200,330.529358 410.073181,329.646393 
	C409.632660,326.700165 411.463379,325.564484 414.660339,326.019714 
z"/>
<path fill="#1B91C7" opacity="1.000000" stroke="none" 
	d="
M381.611816,323.985657 
	C381.181091,323.543335 381.145691,323.111572 381.180115,322.361511 
	C384.833893,321.753265 388.414429,321.370758 392.004211,321.237427 
	C392.921021,321.203339 393.867126,321.958282 394.799805,322.350708 
	C394.013336,323.036102 393.226837,323.721558 392.180237,324.644684 
	C391.281311,326.359131 390.372711,327.782867 390.069489,329.325592 
	C389.656036,331.428894 389.704163,333.622955 389.554382,335.778107 
	C388.890350,335.806122 388.226318,335.834167 387.562256,335.862183 
	C387.375549,333.728088 386.911926,331.574158 387.062744,329.464203 
	C387.334625,325.661072 385.762207,323.906647 381.611816,323.985657 
z"/>
</svg>