<?xml version="1.0" standalone="no"?>
<!DOCTYPE svg PUBLIC "-//W3C//DTD SVG 20010904//EN"
 "http://www.w3.org/TR/2001/REC-SVG-20010904/DTD/svg10.dtd">
<svg version="1.0" xmlns="http://www.w3.org/2000/svg"
 width="612.000000pt" height="408.000000pt" viewBox="0 0 612.000000 408.000000"
 preserveAspectRatio="xMidYMid meet">

<g transform="translate(0.000000,408.000000) scale(0.100000,-0.100000)"
fill="#000000" stroke="none">
<path d="M2915 3806 c-16 -15 -22 -27 -15 -31 5 -3 10 -2 10 4 0 6 10 19 22
31 12 11 19 20 15 20 -3 0 -18 -11 -32 -24z"/>
<path d="M2852 3728 c-73 -109 -112 -239 -112 -376 0 -137 62 -281 165 -386
43 -44 65 -74 65 -90 0 -15 7 -26 20 -29 18 -5 20 -14 20 -76 0 -39 3 -71 8
-71 4 0 19 7 32 16 18 11 17 9 -5 -11 l-30 -26 64 -60 c54 -51 68 -60 91 -56
23 5 32 -1 64 -44 39 -53 37 -68 -12 -83 -25 -8 -27 -16 -9 -35 10 -11 8 -11
-10 0 -18 11 -25 11 -35 1 -9 -9 -8 -15 6 -25 18 -13 18 -15 0 -42 -11 -16
-14 -26 -8 -22 13 7 38 -16 28 -26 -12 -12 6 -55 25 -60 15 -3 18 -11 14 -27
-4 -13 2 -32 16 -51 12 -16 19 -34 15 -40 -4 -6 -11 -1 -18 13 -6 12 -21 24
-32 26 -26 4 -56 54 -47 79 7 17 6 17 -11 0 -12 -12 -15 -21 -8 -30 8 -10 9
-34 3 -69 0 -5 -6 -8 -12 -8 -6 0 -9 7 -5 15 3 8 1 15 -4 15 -17 0 -21 -21
-10 -55 6 -19 8 -40 4 -47 -4 -7 -15 14 -25 51 -10 35 -20 65 -23 68 -8 8 -41
11 -133 12 -69 1 -95 5 -107 17 -23 22 -20 70 5 87 42 30 15 33 -406 41 l-230
4 0 -84 c0 -60 -4 -87 -14 -93 -11 -7 -9 -18 10 -57 12 -27 27 -67 33 -89 21
-74 28 -76 413 -81 186 -3 354 -7 373 -9 89 -9 152 -8 159 4 5 8 13 5 25 -11
17 -23 72 -113 91 -149 5 -11 18 -22 27 -25 10 -3 18 -10 18 -16 0 -5 -7 -8
-15 -4 -8 3 -15 3 -15 -1 0 -23 78 -158 120 -206 47 -55 50 -62 50 -114 l0
-56 -57 7 c-113 13 -119 19 -150 161 -8 39 -27 90 -41 115 -28 50 -122 146
-153 155 -10 4 -19 10 -19 14 0 5 -33 25 -74 46 -76 38 -98 41 -182 22 -67
-16 -167 -91 -227 -172 -16 -22 -27 -32 -24 -23 5 14 0 16 -26 15 -18 -2 -38
-6 -46 -11 -20 -13 -35 16 -16 30 8 6 15 24 15 40 0 23 -10 38 -44 67 -25 20
-50 37 -55 37 -6 0 -11 4 -11 8 0 4 -13 16 -30 25 -17 10 -30 15 -30 11 0 -5
-5 -3 -12 4 -7 7 -16 12 -20 12 -14 0 -9 -55 8 -78 13 -19 13 -25 1 -42 -14
-20 -15 -19 -20 15 -11 65 -59 92 -122 67 -49 -20 -65 -34 -65 -61 0 -14 -6
-21 -19 -21 -22 0 -35 -48 -19 -67 7 -9 3 -14 -16 -19 -16 -4 -23 -11 -19 -18
4 -6 -1 -5 -10 3 -13 10 -17 10 -17 1 0 -10 -4 -9 -16 1 -13 10 -13 14 -3 18
31 10 40 31 37 85 -1 30 -5 53 -7 50 -2 -2 -10 1 -16 6 -7 6 -20 8 -29 4 -14
-5 -12 -9 9 -26 14 -11 25 -28 25 -38 0 -18 -25 -34 -40 -25 -13 8 -38 -28
-43 -60 -3 -27 -7 -30 -41 -30 -20 0 -40 -6 -45 -14 -5 -8 -14 -10 -22 -6 -8
5 -5 -1 5 -13 16 -18 26 -21 60 -16 26 4 36 2 28 -4 -7 -5 -12 -13 -11 -18 4
-23 -3 -33 -33 -44 -18 -7 -38 -12 -45 -11 -7 1 -17 -8 -24 -20 -10 -19 -17
-21 -67 -16 -30 3 -58 10 -61 15 -3 5 -21 13 -38 16 -21 5 -44 22 -64 47 -17
21 -36 39 -43 39 -17 0 -76 54 -76 70 0 7 2 11 6 8 3 -3 25 0 49 8 27 8 47 9
50 3 19 -30 135 20 135 59 0 7 4 11 9 8 5 -3 11 1 15 9 7 18 57 20 75 3 25
-25 1 51 -25 77 -13 13 -24 28 -24 33 0 15 29 23 55 16 12 -3 26 -1 29 5 7 10
99 27 122 23 6 -1 30 16 52 39 33 33 41 47 40 74 -1 19 3 40 9 47 6 7 12 22
15 33 4 18 0 20 -33 20 -20 0 -35 -3 -33 -7 2 -3 -5 -9 -16 -13 -11 -4 -17
-11 -14 -17 5 -7 2 -8 -6 -3 -10 6 -10 10 3 20 9 6 18 30 21 54 5 39 3 42 -16
36 -23 -8 -51 -30 -81 -62 -11 -13 -27 -23 -34 -23 -7 0 -13 -7 -13 -15 0 -13
-3 -13 -20 -3 -26 16 -26 38 0 38 22 0 34 19 43 68 6 31 5 32 -27 32 -20 0
-40 -8 -51 -20 -10 -11 -24 -20 -31 -20 -18 0 -45 -57 -30 -65 7 -3 6 -7 -4
-12 -8 -3 -28 -19 -43 -35 -22 -21 -35 -27 -51 -22 -38 12 -12 -4 33 -19 24
-9 50 -13 57 -10 16 6 19 -13 3 -22 -6 -4 -8 -13 -5 -21 3 -8 1 -14 -4 -14 -6
0 -10 -6 -10 -13 0 -14 -40 -37 -64 -37 -8 0 -19 -6 -25 -13 -18 -22 -90 -42
-103 -29 -6 6 -18 8 -27 4 -14 -5 -14 -3 2 12 9 9 17 22 17 28 0 6 7 20 17 30
15 17 15 18 -3 18 -11 0 -25 -5 -32 -12 -13 -13 -16 -4 -12 40 1 14 -4 22 -14
22 -33 0 -66 23 -66 47 0 12 -4 23 -9 23 -19 0 3 48 29 64 16 9 32 25 35 36 4
11 14 20 23 20 9 1 26 15 37 33 13 21 30 33 48 35 15 2 25 8 21 13 -3 6 24 7
73 3 75 -6 80 -5 110 20 27 23 37 26 72 20 27 -4 46 -2 56 6 12 10 18 10 30 0
8 -6 22 -9 32 -6 13 4 37 -10 78 -44 61 -50 80 -59 87 -39 3 9 9 9 26 0 18 -9
25 -8 40 7 18 18 18 17 19 -14 1 -18 6 -40 12 -51 9 -14 11 -4 9 50 -1 59 1
70 20 83 12 8 22 21 22 28 0 7 9 21 20 31 22 20 27 65 8 65 -9 0 -9 3 0 12 15
15 16 55 1 63 -7 5 -5 13 6 25 14 16 14 19 1 33 -9 8 -21 17 -28 19 -7 3 -9
12 -4 24 4 10 7 21 6 23 -1 2 4 7 12 12 9 6 7 8 -7 8 -49 1 -100 19 -64 23 8
0 19 2 24 3 6 2 15 4 20 5 6 1 17 3 25 4 8 0 16 8 18 17 2 12 -5 14 -31 11
l-34 -4 1 46 c0 39 3 46 19 46 16 0 17 3 7 15 -7 8 -16 12 -21 9 -5 -2 -16 4
-26 15 -12 14 -19 17 -24 9 -8 -12 -49 -19 -49 -8 0 4 -12 12 -26 19 -20 9
-25 17 -20 34 3 12 1 28 -3 36 -7 11 -12 11 -31 -1 -18 -10 -24 -10 -27 0 -3
6 -13 12 -24 12 -11 0 -21 9 -25 24 -7 28 -43 56 -72 56 -10 0 -27 7 -38 15
-10 8 -31 15 -46 15 -18 0 -28 5 -28 15 0 10 -10 15 -30 15 -24 0 -30 4 -30
21 0 20 -4 21 -41 16 -23 -3 -50 -1 -59 6 -14 8 -29 6 -65 -7 -52 -20 -62 -17
-45 13 14 28 4 26 -36 -4 -18 -14 -43 -24 -56 -24 -13 1 -41 -8 -63 -19 -27
-13 -45 -17 -56 -11 -9 4 -19 5 -23 1 -4 -3 -11 0 -15 7 -14 23 -33 3 -20 -20
6 -12 9 -21 7 -22 -2 -1 -17 -9 -34 -18 -24 -13 -42 -15 -75 -9 -54 10 -59 7
-59 -33 0 -29 -5 -34 -57 -56 -32 -14 -58 -33 -61 -43 -3 -13 -10 -16 -28 -12
-20 5 -24 2 -24 -15 0 -12 -4 -21 -10 -21 -5 0 -10 -9 -10 -20 0 -18 -17 -26
-44 -21 -5 1 -13 -4 -18 -11 -5 -8 -8 2 -7 27 4 92 -47 213 -121 284 -44 43
-140 109 -216 149 -48 26 -168 53 -204 47 -41 -7 -215 -72 -247 -93 -23 -14
-23 -15 -23 -290 l0 -275 59 6 c58 6 61 5 80 -22 17 -23 31 -31 74 -36 43 -6
58 -14 88 -46 66 -71 126 -62 171 27 23 47 65 86 105 98 54 17 124 -66 78 -91
-22 -13 -23 -113 -1 -125 22 -12 20 -35 -4 -48 -15 -8 -19 -17 -14 -35 4 -16
2 -25 -6 -25 -12 0 -40 -24 -40 -34 0 -3 7 -6 15 -6 25 0 31 -31 9 -48 -13
-10 -15 -16 -6 -19 6 -3 12 -11 12 -19 0 -8 5 -14 10 -14 18 0 11 -41 -10 -58
-26 -22 -40 -128 -16 -119 10 4 20 -3 29 -19 12 -23 15 -24 26 -10 16 19 38
22 24 4 -6 -7 -10 -20 -11 -28 0 -8 -3 -31 -7 -50 -4 -19 -8 -50 -10 -68 -2
-18 -8 -39 -14 -46 -14 -17 -2 -29 15 -15 20 17 44 3 44 -26 0 -24 25 -36 32
-15 7 22 167 -42 193 -77 11 -15 10 -22 -6 -44 -10 -15 -19 -31 -19 -37 0 -5
-12 -21 -26 -35 l-26 -26 22 -31 c27 -38 34 -38 27 0 -6 28 -5 30 26 30 21 0
42 9 60 26 16 15 34 23 43 20 25 -10 64 5 64 23 0 17 33 51 50 51 6 0 10 -7
10 -15 0 -8 7 -15 15 -15 8 0 15 7 15 15 0 20 12 19 43 -5 41 -32 27 -82 -37
-142 -28 -26 -54 -48 -58 -48 -4 0 -18 -10 -31 -22 -14 -13 -41 -36 -62 -53
-20 -16 -44 -38 -53 -47 -9 -10 -22 -18 -28 -18 -13 0 -50 -51 -46 -64 2 -5
-4 -6 -12 -3 -8 3 -16 1 -18 -5 -4 -12 -298 -15 -317 -4 -5 4 -12 2 -16 -4 -3
-6 8 -22 25 -36 17 -15 49 -53 71 -85 22 -33 43 -59 48 -59 4 0 20 14 37 31
16 17 43 37 59 45 17 7 46 23 65 34 l35 20 14 -20 c7 -11 21 -20 30 -20 25 0
68 -58 62 -83 -2 -11 55 -77 62 -71 9 9 29 -26 43 -78 18 -61 19 -68 10 -88
-4 -10 3 -19 19 -27 14 -6 25 -7 25 -2 0 5 7 9 15 9 8 0 15 -5 15 -11 0 -5 5
-7 10 -4 6 3 10 25 10 49 0 39 4 45 50 80 28 21 50 45 50 54 0 14 -1 14 -12
-1 -7 -9 -24 -18 -37 -19 -19 -2 -26 3 -32 26 -5 16 -14 33 -21 37 -10 7 -9 9
4 9 22 0 34 20 18 30 -19 12 -6 25 62 60 35 18 98 57 141 88 71 49 82 54 110
46 29 -9 31 -13 58 -122 15 -63 30 -117 34 -120 7 -7 10 -8 70 -11 l40 -3 -30
-14 c-29 -14 -28 -14 25 -7 30 5 93 7 139 5 72 -3 83 -1 78 13 -5 12 3 15 45
15 47 0 50 1 33 14 -11 8 -24 12 -29 9 -5 -4 -6 -1 -2 5 10 17 255 10 282 -7
24 -16 50 -60 63 -108 7 -25 5 -41 -12 -73 l-20 -42 -53 6 c-31 4 -55 2 -59
-4 -11 -18 -25 -11 -26 13 -1 16 -2 18 -6 5 -6 -26 -18 -22 -30 9 l-11 28 -1
-27 c-1 -37 -16 -43 -30 -11 -9 20 -15 23 -23 15 -9 -9 -9 -15 -1 -23 13 -13
-4 -66 -25 -74 -7 -3 -26 2 -42 10 -36 19 -60 19 -60 1 0 -24 25 -36 63 -29
21 3 66 -1 104 -11 125 -29 215 -46 249 -46 62 0 174 -24 174 -37 0 -6 5 -24
12 -38 9 -21 18 -25 55 -25 l44 0 -37 32 c-44 39 -57 69 -43 105 7 18 6 30 -1
37 -7 7 -10 2 -10 -16 0 -15 -4 -30 -10 -33 -14 -9 -12 46 3 71 6 11 23 38 37
59 15 24 23 50 21 68 -2 23 6 37 41 69 39 37 149 98 176 98 6 0 15 6 19 14 11
18 47 36 73 36 33 0 73 -27 100 -68 14 -20 37 -49 52 -65 l26 -28 34 34 c40
41 68 57 102 57 31 0 32 -9 6 -59 -12 -24 -40 -52 -73 -74 -54 -36 -87 -67
-71 -67 5 0 18 7 28 15 26 20 33 19 57 -9 37 -43 85 -41 183 5 118 55 177 66
266 51 39 -7 86 -12 106 -12 67 0 189 32 273 71 73 35 88 39 114 29 43 -14
143 -12 180 4 51 23 99 36 108 31 4 -3 26 -1 48 4 27 6 41 5 41 -1 0 -6 7 -8
15 -5 8 4 17 1 21 -5 5 -7 2 -8 -6 -3 -13 8 -13 9 7 -84 5 -20 3 -22 -15 -17
-15 5 -29 -2 -56 -30 -34 -35 -59 -53 -96 -70 -8 -4 -22 -12 -30 -19 -8 -6
-42 -17 -75 -24 -33 -7 -76 -16 -95 -21 -20 -5 -60 -10 -90 -10 -71 0 -95 -4
-112 -17 -13 -11 -90 -10 -127 2 -14 4 -21 17 -24 43 -2 23 -4 13 -5 -28 -2
-46 -5 -61 -12 -50 -8 13 -10 12 -10 -2 0 -10 -4 -18 -9 -18 -5 0 -23 -11 -39
-25 -32 -27 -180 -70 -210 -61 -9 3 -33 1 -52 -3 -21 -6 135 -9 396 -10 l431
-1 99 -48 c54 -27 140 -66 189 -87 50 -20 140 -59 202 -86 189 -83 232 -96
245 -76 5 8 8 7 8 -4 0 -13 12 -18 48 -21 39 -4 50 -1 62 16 23 31 52 63 45
48 -8 -16 23 -28 38 -13 16 16 27 14 27 -7 0 -26 20 -42 49 -41 16 1 20 3 9 6
-9 2 -15 10 -12 17 3 7 -7 18 -21 24 -14 6 -25 18 -25 26 0 11 -8 13 -32 9
-31 -4 -33 -3 -34 24 -1 34 -42 186 -43 161 -1 -25 -21 -23 -21 1 0 11 5 23
10 26 16 10 11 27 -6 23 -11 -2 -18 -16 -21 -41 -3 -32 0 -40 16 -44 21 -5 35
-59 17 -67 -7 -3 -6 -5 2 -5 14 -1 17 -48 3 -53 -5 -1 -11 -16 -13 -33 -2 -16
-8 -38 -14 -48 -10 -17 -13 -17 -58 -2 -26 9 -55 14 -64 11 -9 -3 -24 -1 -32
4 -8 5 -11 10 -7 10 4 0 -3 10 -16 22 -13 13 -41 55 -61 93 -20 39 -47 88 -59
110 -81 143 -110 202 -143 285 -20 52 -42 104 -50 114 -8 11 -14 33 -14 47 0
15 -7 55 -16 89 -18 72 -14 96 15 81 16 -9 20 -4 36 44 9 30 22 55 29 55 8 0
13 16 14 44 2 38 -1 44 -20 50 -34 9 -38 8 -38 -9 0 -8 -7 -15 -15 -15 -12 0
-12 5 -4 24 10 21 8 28 -14 51 -20 23 -28 25 -45 16 -33 -18 -37 -13 -12 14
22 23 22 25 6 49 -9 14 -31 29 -49 34 -34 9 -55 46 -44 77 6 15 8 15 23 0 12
-11 31 -15 68 -13 64 4 59 22 -8 24 -36 1 -53 6 -65 21 -9 12 -26 24 -39 28
-34 10 -55 48 -47 85 6 28 5 30 -22 30 -38 0 -91 34 -99 64 -4 17 8 55 41 128
59 129 66 188 35 273 -23 62 -50 164 -71 272 -10 46 -18 63 -32 67 -10 2 -17
8 -14 13 2 4 1 17 -4 28 -6 17 -8 15 -8 -10 -1 -17 4 -36 9 -41 7 -7 6 -11 -5
-11 -13 0 -15 14 -12 96 3 53 0 141 -5 196 -5 55 -9 110 -9 122 1 27 -19 42
-20 16 -1 -10 -7 0 -15 22 l-14 40 5 -37 c4 -27 2 -38 -7 -39 -8 0 -8 -3 3 -7
11 -5 13 -14 8 -32 l-7 -25 -1 24 c-1 16 -5 21 -16 17 -8 -3 -14 -2 -14 2 3
19 -2 23 -15 13 -10 -8 -16 -9 -21 -1 -9 15 -25 12 -25 -4 0 -25 -36 -27 -92
-6 -32 12 -63 17 -74 13 -16 -6 -17 -5 -6 9 8 10 9 18 3 22 -6 4 -8 13 -4 21
3 10 -1 15 -11 15 -15 0 -14 5 4 40 25 50 25 72 -1 113 -34 52 -63 69 -96 57
-24 -8 -25 -8 -9 3 54 36 55 38 68 159 11 107 26 138 29 63 l1 -30 8 30 c5 21
8 24 10 10 1 -12 4 -15 7 -7 3 7 0 26 -5 42 -7 18 -7 32 -1 35 5 4 9 11 9 16
0 5 -11 2 -24 -6 -24 -16 -25 -16 -29 12 -3 21 -4 18 -6 -13 0 -23 -8 -61 -16
-84 -8 -23 -15 -59 -15 -79 0 -23 -12 -56 -33 -91 l-33 -55 -112 0 c-62 1
-112 -3 -112 -7 0 -4 -7 -8 -17 -8 -9 0 -14 3 -10 6 3 3 2 17 -3 30 -7 18 -6
24 4 24 14 0 32 48 22 58 -3 2 -12 -1 -21 -8 -12 -10 -15 -10 -15 2 0 8 5 19
12 26 9 9 8 12 -6 12 -9 0 -14 4 -11 10 3 5 -8 9 -28 8 -19 -1 -40 3 -48 8 -8
5 -21 9 -29 9 -8 0 -14 5 -13 10 0 6 -5 16 -13 23 -13 12 -14 10 -8 -12 4 -16
2 -26 -5 -26 -6 0 -14 18 -17 40 -5 32 -9 38 -20 29 -7 -6 -10 -18 -8 -27 5
-14 2 -13 -10 2 -16 19 -16 19 -16 -2 0 -12 5 -22 10 -22 6 0 10 -4 10 -9 0
-5 -9 -7 -20 -4 -11 3 -28 2 -37 -1 -15 -6 -15 -9 -3 -17 11 -8 9 -9 -11 -5
-17 4 -31 1 -39 -9 -18 -21 -27 -19 -34 9 -4 15 -13 23 -23 22 -26 -2 -28 45
-4 73 16 18 34 24 85 28 45 4 70 2 81 -7 13 -11 14 -8 9 18 -4 18 -1 32 6 37
8 5 0 18 -26 41 -36 32 -48 38 -68 35 -4 -1 -14 3 -22 9 -7 7 -23 9 -35 5 -19
-6 -21 -4 -16 17 6 22 3 24 -33 26 -26 2 -40 -1 -40 -9 0 -7 -2 -10 -5 -7 -3
3 -25 0 -48 -7 -29 -9 -41 -17 -39 -29 2 -11 -2 -14 -14 -9 -11 4 -15 2 -11
-4 4 -6 -1 -10 -10 -9 -10 0 -18 -4 -18 -11 0 -7 -6 -18 -12 -24 -14 -14 -17
-39 -5 -39 14 0 72 -99 72 -122 0 -13 5 -29 11 -35 7 -7 7 -13 1 -17 -5 -3 -8
-27 -6 -53 3 -38 2 -43 -6 -23 l-9 25 2 -25 c1 -18 7 -24 19 -22 15 2 16 -1 8
-23 -6 -15 -8 -30 -6 -34 3 -4 -4 -14 -15 -21 -10 -8 -19 -20 -19 -27 0 -23
-18 -14 -61 32 -24 25 -53 48 -65 51 -13 3 -29 21 -39 45 -15 32 -16 51 -10
116 5 43 8 90 8 105 0 15 4 25 8 22 5 -3 9 -14 9 -25 0 -10 4 -19 8 -19 14 0
32 23 32 42 0 10 5 18 10 18 6 0 10 7 10 15 0 8 6 15 14 15 11 0 14 10 11 40
-2 22 -1 40 3 40 4 0 7 23 7 50 1 28 0 50 -2 50 -1 0 -15 -19 -31 -42z m27
-15 c0 -5 -4 -16 -8 -26 -7 -18 -8 -18 -21 -1 -13 15 -13 16 -1 9 11 -6 13 -4
8 8 -4 11 -1 17 8 17 8 0 15 -3 14 -7z m231 -43 c0 -5 -2 -10 -4 -10 -3 0 -8
5 -11 10 -3 6 -1 10 4 10 6 0 11 -4 11 -10z m-260 -10 c0 -5 -4 -10 -10 -10
-5 0 -10 5 -10 10 0 6 5 10 10 10 6 0 10 -4 10 -10z m-5 -40 c10 -11 16 -20
13 -20 -3 0 -13 9 -23 20 -10 11 -16 20 -13 20 3 0 13 -9 23 -20z m402 -86
c-3 -3 -12 -4 -19 -1 -8 3 -5 6 6 6 11 1 17 -2 13 -5z m440 -389 c0 -8 -4 -12
-9 -9 -5 3 -6 10 -3 15 9 13 12 11 12 -6z m151 -7 c7 -7 12 -19 12 -27 0 -9
-6 -7 -20 9 -11 13 -20 25 -20 27 0 7 17 2 28 -9z m-208 -70 c0 -5 -9 -6 -20
-3 -31 10 -24 -12 8 -23 21 -8 23 -11 7 -11 -11 0 -27 4 -35 9 -10 6 -20 4
-32 -7 -28 -25 -21 -2 8 28 24 26 64 30 64 7z m180 -71 c0 -2 -15 -16 -32 -33
l-33 -29 29 33 c28 30 36 37 36 29z m-80 -73 c-8 -8 -23 -20 -34 -25 -13 -6
-10 0 9 15 34 29 43 33 25 10z m-134 -22 c-4 -3 -14 2 -24 12 -16 18 -16 18 6
6 13 -6 21 -14 18 -18z m69 -22 c-3 -5 -14 -10 -23 -10 -15 0 -15 2 -2 10 20
13 33 13 25 0z m-143 -30 c11 0 37 -9 60 -21 37 -19 42 -19 50 -5 13 23 54 21
54 -3 0 -11 -5 -17 -13 -14 -15 6 -16 2 -7 -21 5 -13 9 -14 20 -5 8 6 14 18
14 26 0 10 9 13 28 11 21 -2 28 -9 30 -31 3 -23 -2 -29 -27 -38 -17 -6 -31
-18 -31 -26 0 -8 -5 -11 -10 -8 -6 4 -15 -7 -21 -24 -6 -17 -14 -31 -17 -31
-4 0 -18 -3 -31 -7 -20 -5 -23 -3 -18 10 6 15 -49 97 -76 114 -18 11 -57 80
-49 87 3 4 10 2 16 -4 5 -5 18 -10 28 -10z m-244 -23 c-10 -7 -35 -23 -57 -36
-22 -14 -38 -28 -35 -32 2 -4 -5 -13 -17 -19 -15 -9 -18 -15 -10 -23 22 -22
10 -28 -15 -8 -15 11 -31 18 -38 14 -6 -3 -4 1 4 10 8 9 51 37 95 62 76 43
109 58 73 32z m784 -46 c7 -20 2 -18 -32 15 -22 21 -40 41 -40 42 0 14 65 -38
72 -57z m-842 -51 c13 -8 13 -11 -1 -25 -15 -15 -18 -15 -33 1 -14 14 -15 19
-4 25 16 11 20 11 38 -1z m142 -12 c-7 -7 -12 -8 -12 -2 0 6 3 14 7 17 3 4 9
5 12 2 2 -3 -1 -11 -7 -17z m-228 -58 c47 -61 47 -67 2 -50 -18 6 -28 21 -37
52 -10 36 -13 40 -20 23 -4 -11 -8 -15 -8 -8 -1 13 9 43 14 43 2 0 24 -27 49
-60z m797 33 c11 -20 11 -26 0 -33 -8 -4 -11 -15 -8 -24 4 -10 1 -19 -8 -22
-7 -3 -11 -12 -8 -20 3 -8 -2 -23 -10 -32 -9 -9 -31 -34 -50 -55 -37 -42 -112
-69 -157 -57 -24 6 -23 7 15 20 22 7 53 23 69 34 30 22 86 75 86 81 0 2 14 24
30 48 17 25 30 51 29 58 0 11 -2 11 -6 2 -8 -21 -32 -15 -26 5 6 26 29 23 44
-5z m53 -90 c6 -15 8 -15 16 -3 7 11 10 7 10 -15 0 -23 -3 -27 -10 -15 -8 13
-10 12 -10 -2 0 -10 -7 -18 -15 -18 -9 0 -18 -8 -22 -17 -6 -20 -42 -52 -57
-53 -5 0 -2 8 7 18 9 10 23 34 32 55 8 20 20 37 25 37 5 0 7 7 4 15 -4 8 -2
15 4 15 5 0 13 -8 16 -17z m273 -80 c-3 -10 -5 -4 -5 12 0 17 2 24 5 18 2 -7
2 -21 0 -30z m-1017 -113 c0 -5 -2 -10 -4 -10 -3 0 -8 5 -11 10 -3 6 -1 10 4
10 6 0 11 -4 11 -10z m-45 -277 c3 -10 6 -20 6 -23 1 -3 5 -10 11 -17 10 -12
2 -53 -10 -53 -4 0 -7 16 -8 36 0 23 -7 40 -18 46 -9 5 -14 13 -11 19 9 14 22
11 30 -8z m-1190 -13 c-3 -5 -16 -15 -28 -21 -22 -12 -22 -12 -3 10 19 21 43
30 31 11z m1165 -20 c0 -5 -4 -10 -10 -10 -5 0 -10 5 -10 10 0 6 5 10 10 10 6
0 10 -4 10 -10z m124 -6 c3 -8 2 -12 -4 -9 -6 3 -10 10 -10 16 0 14 7 11 14
-7z m-981 -34 c4 0 7 -6 7 -14 0 -8 10 -17 23 -19 12 -2 2 -5 -23 -6 -47 -1
-90 19 -90 44 0 10 9 11 38 4 20 -5 40 -9 45 -9z m938 -29 c0 -12 2 -12 9 4 6
13 9 15 9 5 0 -8 -4 -22 -9 -30 -6 -10 -10 -11 -10 -2 0 6 -7 12 -15 12 -8 0
-15 9 -15 20 0 24 30 16 31 -9z m686 7 c-3 -8 -6 -5 -6 6 -1 11 2 17 5 13 3
-3 4 -12 1 -19z m-632 -8 c-3 -5 -11 -10 -16 -10 -6 0 -7 5 -4 10 3 6 11 10
16 10 6 0 7 -4 4 -10z m-168 -32 c-3 -8 -6 -5 -6 6 -1 11 2 17 5 13 3 -3 4
-12 1 -19z m1083 -12 c0 -3 -4 -8 -10 -11 -5 -3 -10 -1 -10 4 0 6 5 11 10 11
6 0 10 -2 10 -4z m-1050 -41 c0 -5 -5 -3 -10 5 -5 8 -10 20 -10 25 0 6 5 3 10
-5 5 -8 10 -19 10 -25z m1070 -1 c0 -8 -2 -14 -4 -14 -2 0 -11 -3 -19 -6 -10
-4 -15 1 -14 13 3 33 37 40 37 7z m-2730 -132 c0 -15 -11 -21 -27 -15 -12 5
-12 7 -1 14 17 11 28 11 28 1z m1300 -12 c-8 -5 -19 -10 -25 -10 -5 0 -3 5 5
10 8 5 20 10 25 10 6 0 3 -5 -5 -10z m560 -94 c0 -2 -7 -9 -15 -16 -13 -11
-14 -10 -9 4 5 14 24 23 24 12z m-1490 -60 c0 -3 -4 -8 -10 -11 -5 -3 -10 -1
-10 4 0 6 5 11 10 11 6 0 10 -2 10 -4z m150 -12 c0 -14 -61 -64 -85 -70 -14
-3 -25 -10 -25 -15 0 -5 -7 -9 -15 -9 -14 0 -13 3 2 25 10 13 24 23 30 20 7
-2 27 9 45 25 31 29 48 37 48 24z m-22 -111 c-10 -2 -18 -13 -18 -24 0 -10 -3
-19 -7 -19 -5 0 -19 -3 -33 -7 -23 -5 -23 -4 9 26 19 17 42 30 50 30 13 -1 12
-2 -1 -6z m2378 -209 c47 -39 49 -54 5 -54 -40 0 -66 33 -62 78 2 18 9 15 57
-24z m-3106 7 c0 -6 -4 -13 -10 -16 -5 -3 -10 -17 -10 -30 0 -22 -35 -103 -50
-115 -3 -3 -12 -20 -19 -37 -15 -36 -23 -40 -39 -20 -9 10 3 39 49 120 53 95
79 127 79 98z m2220 -20 c0 -11 5 -23 10 -26 13 -8 13 -45 0 -45 -5 0 -12 12
-16 28 -3 15 -8 35 -11 45 -2 9 0 17 6 17 6 0 11 -9 11 -19z m-59 -78 c55 -5
61 -9 101 -56 36 -44 42 -56 41 -95 -1 -24 -4 -46 -7 -49 -4 -4 -97 30 -164
60 -26 12 -51 63 -58 121 -5 33 -3 38 12 32 10 -4 43 -9 75 -13z m-575 -9
c-19 -11 -41 -14 -67 -10 -22 3 -39 3 -39 -2 0 -4 10 -8 22 -9 25 -2 43 -19
53 -50 5 -18 2 -23 -12 -23 -11 0 -25 6 -32 13 -11 10 -13 9 -7 -3 4 -8 0 -5
-9 7 -9 12 -23 19 -31 16 -10 -4 -11 -9 -5 -17 7 -8 4 -12 -9 -13 -26 -2 -35
28 -14 44 17 12 16 13 -3 13 -26 0 -47 -25 -39 -47 6 -17 5 -17 -8 0 -7 9 -19
17 -26 17 -9 0 -7 -7 6 -22 14 -16 14 -19 2 -10 -14 11 -18 10 -25 -3 -8 -14
-13 -13 -36 9 -15 14 -27 24 -28 23 0 -1 -3 -15 -5 -30 -4 -22 -2 -27 8 -21 8
4 10 3 5 -2 -5 -5 -12 -9 -16 -9 -3 0 -17 -10 -31 -22 -16 -16 -19 -23 -9 -23
12 0 12 -2 -1 -10 -20 -12 -39 6 -33 30 3 11 9 20 14 20 5 0 9 7 9 15 0 8 12
18 26 21 14 4 21 10 15 13 -15 10 46 44 65 37 8 -3 13 -2 10 3 -3 5 1 12 10
15 10 4 13 2 9 -7 -4 -6 1 -3 10 8 25 31 72 43 165 44 83 0 84 0 56 -15z m694
-24 c6 -11 7 -20 3 -20 -5 0 -14 9 -21 20 -7 11 -8 20 -2 20 5 0 14 -9 20 -20z
m-2567 3 c-7 -2 -21 -2 -30 0 -10 3 -4 5 12 5 17 0 24 -2 18 -5z m70 -36 c15
-7 27 -19 27 -27 0 -20 34 -87 57 -112 21 -23 25 -65 6 -72 -10 -4 -10 -12 -3
-32 6 -15 9 -29 6 -31 -6 -6 -56 100 -56 118 0 17 -33 72 -60 102 -11 11 -20
24 -20 29 0 4 -9 17 -20 28 l-21 21 28 -7 c16 -3 40 -11 56 -17z m2538 6 c13
-16 12 -17 -3 -4 -17 13 -22 21 -14 21 2 0 10 -8 17 -17z m-448 0 c-7 -2 -19
-2 -25 0 -7 3 -2 5 12 5 14 0 19 -2 13 -5z m512 -13 c19 -8 19 -9 -2 -9 -12
-1 -25 4 -28 9 -7 12 2 12 30 0z m161 -52 c1 -15 -2 -30 -7 -33 -5 -4 -9 9 -9
27 0 18 -4 29 -8 23 -11 -16 -34 -17 -44 -3 -7 9 -8 3 -5 -17 6 -30 5 -31 -34
-31 -38 0 -40 1 -34 24 5 22 3 24 -19 20 -29 -6 -36 8 -8 14 9 2 50 4 91 3 73
0 74 0 77 -27z m59 22 c-3 -5 -14 -8 -25 -7 -24 2 -18 12 9 14 12 1 19 -2 16
-7z m22 -12 c-3 -8 -6 -5 -6 6 -1 11 2 17 5 13 3 -3 4 -12 1 -19z m44 9 c-7
-7 -14 -8 -21 -1 -6 6 -2 10 12 11 16 2 18 -1 9 -10z m618 -60 c1 -5 -3 -5 -9
-2 -5 3 -10 16 -9 28 0 21 1 21 9 2 5 -11 9 -24 9 -28z m-904 3 c-4 -12 -9
-19 -12 -17 -3 3 -2 15 2 27 4 12 9 19 12 17 3 -3 2 -15 -2 -27z m135 10 c0
-5 -7 -10 -15 -10 -8 0 -15 5 -15 10 0 6 7 10 15 10 8 0 15 -4 15 -10z m-1322
-59 c9 -24 7 -32 -8 -46 -10 -9 -23 -14 -28 -11 -12 7 -33 -40 -26 -59 4 -8 2
-15 -4 -15 -30 0 -18 69 19 103 10 10 19 29 19 43 0 31 15 24 28 -15z m1787
17 c6 -6 -5 -7 -30 -2 -58 10 -78 24 -25 17 25 -3 50 -10 55 -15z m-1728 -180
c-2 -13 -4 -5 -4 17 -1 22 1 32 4 23 2 -10 2 -28 0 -40z"/>
<path d="M3731 1104 c0 -11 3 -14 6 -6 3 7 2 16 -1 19 -3 4 -6 -2 -5 -13z"/>
<path d="M3700 1095 c0 -8 5 -15 10 -15 6 0 10 7 10 15 0 8 -4 15 -10 15 -5 0
-10 -7 -10 -15z"/>
<path d="M2455 990 c-4 -12 -5 -24 -2 -27 3 -2 8 5 12 17 4 12 5 24 2 27 -3 2
-8 -5 -12 -17z"/>
<path d="M3950 3555 c0 -8 -9 -19 -20 -25 -20 -11 -30 -70 -11 -70 14 0 20 27
9 38 -8 8 -7 13 5 18 23 9 92 -33 122 -75 14 -20 25 -32 25 -28 0 17 -53 111
-75 133 -27 27 -55 32 -55 9z"/>
<path d="M3290 3541 c0 -18 27 -37 38 -26 3 3 0 5 -6 5 -7 0 -12 9 -12 20 0
11 -4 20 -10 20 -5 0 -10 -9 -10 -19z"/>
<path d="M2781 3474 c0 -11 3 -14 6 -6 3 7 2 16 -1 19 -3 4 -6 -2 -5 -13z"/>
<path d="M3943 3464 c-38 -19 -34 -28 30 -83 20 -18 37 -41 37 -51 0 -23 37
-70 56 -70 18 0 18 9 -2 31 -17 19 -20 47 -9 90 5 21 0 33 -28 62 -39 42 -40
42 -84 21z"/>
<path d="M3840 3313 c0 -16 -5 -34 -12 -41 -9 -9 -8 -12 5 -12 9 0 17 -6 17
-14 0 -16 18 -31 27 -22 3 3 -1 16 -10 29 -8 13 -13 35 -10 49 3 14 0 29 -6
32 -7 5 -11 -3 -11 -21z"/>
<path d="M4253 3263 c9 -2 25 -2 35 0 9 3 1 5 -18 5 -19 0 -27 -2 -17 -5z"/>
<path d="M4320 3250 c0 -12 7 -20 18 -20 24 -1 46 -20 60 -55 15 -36 16 -64 8
-169 -3 -44 -3 -77 0 -73 3 3 8 30 11 59 2 29 12 68 20 86 14 29 14 39 3 70
-28 80 -120 157 -120 102z"/>
<path d="M5180 3229 c-25 -4 -72 -12 -105 -17 -70 -11 -186 -41 -200 -52 -5
-4 -26 -11 -45 -15 -49 -10 -190 -76 -190 -88 0 -6 -3 -8 -6 -4 -3 3 -24 -8
-47 -24 -22 -16 -46 -29 -54 -29 -7 0 -22 -8 -32 -17 -10 -10 -35 -33 -54 -51
-25 -23 -37 -29 -41 -20 -3 7 -3 3 0 -9 3 -13 1 -23 -5 -23 -6 0 -11 -9 -11
-19 0 -29 -11 -51 -25 -51 -7 0 -19 -7 -26 -16 -12 -15 -14 -14 -20 7 -5 17
-7 9 -8 -26 -1 -27 -4 -60 -7 -72 -9 -33 9 -28 24 7 16 36 28 38 36 6 3 -14
21 -44 39 -68 58 -76 79 -108 81 -124 3 -19 22 -41 74 -82 64 -52 86 -70 102
-85 8 -7 31 -24 50 -37 39 -27 175 -152 204 -188 19 -24 32 -63 47 -147 15
-85 16 -89 32 -119 17 -32 8 -56 -19 -56 -19 0 -18 -16 1 -24 19 -7 20 -26 1
-26 -19 0 -31 -87 -18 -133 19 -68 -46 -159 -171 -242 -45 -30 -58 -44 -63
-71 -3 -18 -4 -39 -1 -46 3 -7 6 -3 6 10 1 31 21 28 21 -4 0 -14 4 -22 10 -19
6 4 7 -6 3 -26 -5 -25 -3 -30 7 -24 9 6 11 4 5 -5 -5 -8 -10 -25 -12 -39 -1
-14 -5 -40 -9 -57 -8 -40 11 -53 35 -23 24 29 41 17 41 -30 0 -20 5 -42 12
-49 6 -6 12 -38 13 -70 1 -33 5 -64 9 -71 4 -6 5 -15 1 -20 -3 -5 0 -13 5 -16
12 -7 50 22 50 38 0 5 8 17 19 26 18 16 30 57 35 121 5 54 6 56 21 36 19 -26
19 -111 0 -166 -18 -50 -13 -64 8 -23 20 39 30 186 18 258 -6 33 -13 78 -17
99 -5 28 -4 37 4 32 7 -4 12 -19 12 -34 0 -15 7 -35 15 -45 13 -18 14 -17 29
10 18 34 22 9 4 -34 -12 -31 -20 -203 -8 -203 9 0 5 -63 -4 -79 -4 -6 -4 -16
0 -23 5 -8 10 -6 16 8 6 14 7 13 3 -8 -3 -17 3 -42 16 -68 12 -23 19 -51 17
-65 -3 -15 0 -26 9 -29 22 -9 23 -8 16 11 -5 15 -3 14 10 -2 15 -19 16 -19 23
-1 4 10 2 21 -3 25 -48 30 -67 212 -38 360 12 63 14 95 7 103 -5 7 -30 52 -55
101 -36 71 -41 86 -26 82 11 -4 19 -2 19 4 0 6 4 11 10 11 5 0 7 -7 4 -15 -4
-8 -1 -15 5 -15 6 0 11 6 11 13 0 8 4 7 10 -3 6 -10 10 -11 10 -2 0 6 8 12 18
12 9 0 29 11 44 25 15 14 34 25 43 25 9 0 15 9 15 25 0 14 5 25 10 25 6 0 10
-4 10 -10 0 -5 5 -10 10 -10 6 0 10 7 10 16 0 30 18 4 23 -33 2 -21 8 -51 11
-68 4 -16 11 -48 16 -70 5 -23 5 -44 0 -50 -6 -7 -5 -16 2 -23 6 -6 8 -17 5
-24 -4 -11 -79 -40 -164 -64 -7 -2 -13 -9 -13 -16 0 -9 3 -9 10 2 9 13 11 13
20 0 5 -8 10 -21 10 -28 0 -7 11 -17 25 -22 14 -5 25 -14 25 -20 0 -5 13 -10
30 -10 20 0 35 -8 46 -25 9 -14 26 -25 39 -25 12 0 28 -7 35 -16 26 -30 51
-37 65 -17 12 17 14 16 20 -12 4 -17 12 -48 17 -70 19 -75 25 -112 32 -193 5
-59 5 -62 -17 -62 -22 -1 -57 -21 -57 -34 0 -4 19 -5 43 -2 l42 7 -35 -16
c-21 -10 -47 -14 -66 -10 -17 3 -42 1 -55 -3 -16 -6 -37 -5 -63 4 -46 17 -46
17 -46 4 0 -5 7 -10 16 -10 8 0 22 -6 30 -14 12 -13 11 -15 -8 -18 -13 -2 -23
-9 -23 -16 0 -8 -8 -19 -17 -26 -24 -18 -23 -23 10 -29 15 -3 35 -9 45 -12 12
-5 17 -2 17 12 0 22 18 43 36 43 9 0 10 -8 4 -31 -5 -16 -6 -37 -3 -45 7 -19
38 -14 39 6 0 8 4 24 8 35 5 11 10 26 12 33 6 20 72 15 83 -7 14 -25 26 -154
17 -178 -7 -17 -8 -17 -21 0 -11 16 -16 17 -34 5 -16 -9 -24 -10 -29 -2 -8 13
-81 49 -86 43 -9 -9 15 -49 29 -49 8 0 15 -6 15 -14 0 -8 7 -16 15 -20 30 -11
14 -21 -29 -18 -75 6 -86 0 -43 -25 20 -12 37 -27 37 -32 0 -5 -18 -12 -41
-16 -43 -7 -42 -20 1 -28 51 -9 -162 -7 -232 3 -183 24 -494 42 -636 36 -209
-9 -360 -24 -413 -43 -43 -15 -50 -15 -80 0 -64 30 -154 55 -264 75 -146 27
-189 32 -181 25 12 -12 80 -33 204 -63 321 -78 345 -79 599 -41 112 17 221 31
242 31 22 0 69 -13 106 -30 51 -23 82 -30 128 -30 57 0 83 -5 167 -35 24 -9
51 -10 85 -4 28 4 76 8 107 8 31 1 58 6 60 12 2 5 61 15 131 22 115 10 131 9
155 -6 15 -9 26 -21 24 -27 -1 -6 6 -11 15 -10 10 1 31 2 46 1 43 -2 21 -21
-24 -21 -39 0 -44 -5 -33 -34 5 -14 40 -16 280 -16 l274 0 0 1046 0 1045 -26
57 c-24 52 -60 146 -62 165 -7 52 -120 333 -186 466 -70 138 -139 239 -196
288 -38 31 -50 26 -15 -7 14 -13 25 -28 25 -33 0 -4 -12 6 -27 24 -16 18 -28
36 -28 40 0 4 -3 11 -7 15 -5 4 -8 2 -8 -5 0 -7 -5 -9 -10 -6 -6 4 -7 11 -4
17 4 7 2 8 -5 4 -7 -5 -31 7 -58 28 -29 22 -76 45 -127 60 -99 30 -147 36
-206 25z m354 -158 c11 -12 24 -21 30 -21 6 1 0 10 -13 21 -13 11 -21 22 -18
25 6 7 77 -55 77 -67 0 -5 -6 -9 -14 -9 -8 0 -16 -5 -18 -12 -5 -13 -37 17
-88 82 l-35 45 30 -22 c17 -11 39 -30 49 -42z m-119 -930 c9 -15 -24 -41 -51
-41 -14 0 -38 -10 -54 -22 -31 -23 -48 -20 -33 6 25 45 120 84 138 57z m4
-116 c37 -99 25 -153 -39 -169 -40 -10 -57 -23 -44 -36 9 -9 20 -7 44 5 35 18
50 14 31 -9 -17 -20 -96 -56 -123 -56 -35 1 -81 43 -74 68 4 11 2 39 -3 63 -7
30 -7 47 1 57 17 20 31 -11 23 -48 -8 -37 9 -46 62 -33 28 7 37 14 35 26 -2 9
2 17 8 17 5 0 10 -4 10 -10 0 -14 33 -13 48 2 19 19 14 77 -9 109 -13 18 -18
36 -14 49 10 33 22 23 44 -35z m-409 -745 c0 -5 -4 -10 -10 -10 -5 0 -10 5
-10 10 0 6 5 10 10 10 6 0 10 -4 10 -10z m-220 -10 c0 -5 -2 -10 -4 -10 -3 0
-8 5 -11 10 -3 6 -1 10 4 10 6 0 11 -4 11 -10z m565 -780 c-3 -5 -10 -10 -16
-10 -5 0 -9 5 -9 10 0 6 7 10 16 10 8 0 12 -4 9 -10z m165 -210 c0 -5 -4 -10
-10 -10 -5 0 -10 5 -10 10 0 6 5 10 10 10 6 0 10 -4 10 -10z m250 -225 c38 -3
39 -20 1 -23 -41 -4 -99 17 -79 29 7 5 22 6 33 2 10 -3 31 -7 45 -8z m83 -32
c-7 -2 -21 -2 -30 0 -10 3 -4 5 12 5 17 0 24 -2 18 -5z"/>
<path d="M4117 3213 c-4 -3 -7 -11 -7 -17 0 -6 5 -5 12 2 6 6 9 14 7 17 -3 3
-9 2 -12 -2z"/>
<path d="M4436 3002 c-3 -5 4 -18 17 -28 12 -10 19 -15 15 -10 -4 5 -2 16 4
25 7 9 8 13 4 9 -5 -4 -15 -3 -22 3 -7 6 -15 6 -18 1z"/>
<path d="M4333 2835 c0 -22 2 -30 4 -17 2 12 2 30 0 40 -3 9 -5 -1 -4 -23z"/>
<path d="M2320 2677 c0 -2 9 -14 20 -27 l20 -23 0 26 c0 20 -5 27 -20 27 -11
0 -20 -2 -20 -3z"/>
<path d="M2310 2634 c0 -8 5 -12 10 -9 6 4 8 11 5 16 -9 14 -15 11 -15 -7z"/>
<path d="M550 2620 c0 -11 5 -20 10 -20 6 0 10 9 10 20 0 11 -4 20 -10 20 -5
0 -10 -9 -10 -20z"/>
<path d="M546 2513 c-3 -25 -4 -48 -1 -51 10 -10 35 22 30 39 -3 9 -1 20 5 24
17 10 11 35 -9 35 -14 0 -20 -10 -25 -47z"/>
<path d="M0 2505 c0 -28 11 -30 55 -11 l30 12 -34 12 c-47 17 -51 15 -51 -13z"/>
<path d="M80 2460 c0 -5 -18 -13 -40 -16 -40 -7 -40 -7 -40 -51 l0 -44 48 26
c46 25 89 75 75 89 -10 10 -43 7 -43 -4z"/>
<path d="M2130 2255 c0 -5 5 -17 10 -25 5 -8 10 -10 10 -5 0 6 -5 17 -10 25
-5 8 -10 11 -10 5z"/>
<path d="M4393 2226 c3 -9 90 -46 110 -46 4 0 7 6 7 14 0 8 8 17 18 19 11 3 7
5 -10 6 -15 0 -29 5 -32 10 -9 13 -97 10 -93 -3z"/>
<path d="M4551 2194 c0 -11 3 -14 6 -6 3 7 2 16 -1 19 -3 4 -6 -2 -5 -13z"/>
<path d="M3103 2180 c1 -11 7 -20 13 -20 7 0 10 8 7 20 -3 11 -9 20 -14 20 -4
0 -7 -9 -6 -20z"/>
<path d="M0 2051 c0 -15 6 -21 21 -21 25 0 22 33 -4 38 -12 2 -17 -3 -17 -17z"/>
<path d="M4480 2026 c0 -9 7 -16 16 -16 9 0 23 -9 33 -21 13 -17 23 -19 52
-14 81 15 77 36 -9 46 -31 3 -65 9 -74 14 -13 5 -18 3 -18 -9z"/>
<path d="M410 2012 c-19 -9 -38 -21 -41 -25 -3 -4 -16 -9 -27 -10 -12 -1 -22
-5 -22 -9 0 -4 -7 -8 -15 -8 -10 0 -15 -11 -15 -35 0 -25 -4 -35 -16 -35 -26
0 -13 -43 16 -50 l25 -6 -22 -8 c-13 -4 -23 -11 -23 -16 0 -5 -20 -34 -45 -65
-25 -30 -44 -58 -43 -63 5 -14 -154 -163 -168 -158 -11 4 -14 -8 -14 -57 l0
-63 38 4 c27 4 48 16 77 46 22 22 38 47 37 55 -4 15 56 81 73 81 16 0 41 30
50 60 13 43 42 67 75 62 16 -2 34 -10 40 -17 15 -18 40 -8 40 16 0 13 7 19 21
19 26 0 116 57 124 78 22 59 -86 106 -155 67 -27 -15 -60 -20 -60 -7 0 4 12
15 28 26 27 19 92 107 92 126 0 15 -30 11 -70 -8z"/>
<path d="M0 1794 c0 -69 0 -69 19 -45 l18 23 20 -21 21 -22 14 43 c19 57 13
78 -20 78 -15 0 -37 3 -49 6 -22 6 -23 4 -23 -62z"/>
<path d="M4950 1849 c0 -5 9 -9 20 -9 11 0 20 2 20 4 0 2 -9 6 -20 9 -11 3
-20 1 -20 -4z"/>
<path d="M670 1769 c0 -5 5 -7 10 -4 6 3 10 8 10 11 0 2 -4 4 -10 4 -5 0 -10
-5 -10 -11z"/>
<path d="M1767 1713 c-4 -3 -7 -18 -7 -32 0 -24 1 -24 15 -5 22 29 15 61 -8
37z"/>
<path d="M7 1703 c-13 -12 -8 -83 6 -83 7 0 12 14 12 39 -1 41 -7 56 -18 44z"/>
<path d="M570 1665 c-66 -51 -70 -55 -70 -67 0 -6 10 -2 23 9 12 11 38 23 58
27 27 5 38 13 43 29 13 48 6 48 -54 2z"/>
<path d="M403 1616 c-6 -7 -7 -19 -3 -26 6 -9 11 -7 19 8 18 34 8 45 -16 18z"/>
<path d="M260 1480 c-6 -12 -21 -20 -35 -20 -18 0 -25 -5 -25 -19 0 -37 64
-36 76 1 5 17 12 19 44 14 45 -7 63 10 35 31 -29 20 -82 17 -95 -7z"/>
<path d="M4691 1214 c-2 -44 10 -95 20 -88 12 7 12 47 0 60 -5 5 -11 20 -14
34 -4 22 -4 21 -6 -6z"/>
<path d="M880 1074 c0 -11 5 -25 10 -30 8 -8 8 -19 0 -38 -12 -32 -5 -50 17
-42 8 3 11 1 8 -4 -3 -6 0 -10 9 -10 8 0 25 -23 39 -51 30 -63 44 -43 19 28
-21 59 -102 176 -102 147z m41 -76 c11 -21 11 -22 -4 -9 -10 7 -17 17 -17 22
0 15 9 10 21 -13z"/>
<path d="M2048 1053 c6 -2 18 -2 25 0 6 3 1 5 -13 5 -14 0 -19 -2 -12 -5z"/>
<path d="M5156 1052 c-2 -4 -1 -14 5 -22 7 -12 9 -10 9 8 0 23 -5 28 -14 14z"/>
<path d="M95 1013 c-68 -4 -95 -11 -95 -24 0 -7 9 -9 22 -6 12 3 44 -3 72 -14
76 -30 197 -94 186 -97 -6 -2 -10 -13 -10 -25 -1 -40 -23 -57 -74 -57 -38 0
-46 -3 -46 -18 0 -17 5 -18 53 -11 48 8 158 14 312 18 l60 1 -44 25 c-23 14
-48 25 -55 25 -6 0 -32 11 -59 24 -26 14 -62 28 -80 31 -17 4 -60 20 -94 36
-52 24 -64 35 -71 61 -9 36 -8 35 -77 31z"/>
<path d="M765 999 c5 -13 19 -42 33 -63 14 -22 32 -56 41 -75 27 -59 91 -151
104 -151 9 0 9 2 0 8 -7 4 -12 16 -11 27 1 11 -19 54 -44 95 -88 146 -140 214
-123 159z"/>
<path d="M1615 1000 c-3 -6 1 -7 9 -4 18 7 21 14 7 14 -6 0 -13 -4 -16 -10z"/>
<path d="M4760 990 c0 -5 5 -10 10 -10 6 0 10 5 10 10 0 6 -4 10 -10 10 -5 0
-10 -4 -10 -10z"/>
<path d="M1615 968 c-27 -11 -63 -18 -79 -15 -31 4 -114 -26 -161 -59 -16 -12
-66 -40 -109 -62 -44 -23 -83 -47 -87 -54 -7 -10 -9 -10 -9 0 0 6 -5 12 -10
12 -6 0 -10 -6 -9 -12 3 -27 -2 -37 -20 -43 -33 -10 -69 15 -84 58 l-13 41
-27 -48 -27 -48 26 6 c31 8 73 -2 54 -14 -8 -5 -7 -9 5 -13 9 -4 13 -3 10 3
-7 11 18 14 29 3 12 -13 80 -2 99 15 10 9 29 17 41 17 27 2 101 43 92 52 -3 3
2 13 12 20 9 8 0 5 -22 -6 -21 -12 -41 -19 -45 -15 -3 4 0 9 7 11 7 3 20 12
29 21 9 10 18 16 20 14 2 -1 17 5 34 14 17 8 40 14 50 11 11 -3 17 -1 13 4 -3
5 4 9 15 9 10 0 41 11 68 24 26 13 72 32 101 42 28 10 52 22 52 26 0 4 -1 8
-2 7 -2 -1 -25 -10 -53 -21z"/>
<path d="M1548 963 c7 -3 16 -2 19 1 4 3 -2 6 -13 5 -11 0 -14 -3 -6 -6z"/>
<path d="M2901 858 l-1 -82 33 32 c30 29 65 108 52 120 -3 3 -5 1 -5 -5 0 -6
-11 -8 -25 -5 -14 2 -22 8 -19 13 3 5 -4 9 -14 9 -18 0 -20 -7 -21 -82z"/>
<path d="M1609 914 c-11 -14 -10 -16 9 -12 13 1 23 7 23 13 1 17 -17 16 -32
-1z"/>
<path d="M2740 923 c0 -23 46 -173 54 -173 4 0 5 10 2 23 -4 12 -8 31 -9 42
-4 35 -27 104 -37 110 -6 3 -10 3 -10 -2z"/>
<path d="M1526 865 c-8 -9 -18 -15 -21 -15 -3 1 -18 -8 -33 -19 -15 -11 -22
-21 -15 -21 6 0 24 -5 40 -12 39 -15 54 -18 47 -7 -3 5 -9 7 -14 4 -18 -11
-18 14 0 48 22 40 20 46 -4 22z"/>
<path d="M1640 870 c0 -5 5 -10 11 -10 5 0 7 5 4 10 -3 6 -8 10 -11 10 -2 0
-4 -4 -4 -10z"/>
<path d="M1843 872 c-12 -8 -43 -73 -43 -92 0 -6 27 -10 65 -10 37 0 65 4 65
10 0 6 -5 10 -11 10 -5 0 -7 5 -3 12 4 6 3 8 -3 5 -19 -12 -69 16 -65 36 2 9
8 17 13 17 5 0 9 -8 9 -17 0 -14 2 -15 9 -4 5 7 14 10 20 7 15 -9 14 7 -1 22
-14 14 -37 15 -55 4z"/>
<path d="M1800 844 l-14 -26 -20 24 c-11 13 -17 16 -13 7 3 -10 0 -16 -6 -16
-32 3 -104 -17 -120 -34 -10 -10 -32 -26 -49 -35 -25 -13 -32 -14 -40 -2 -5 8
-6 2 -2 -17 8 -36 14 -45 14 -22 0 9 3 17 8 17 4 1 23 3 42 6 19 2 69 8 110
12 69 6 75 9 78 31 2 14 11 35 19 48 9 13 14 26 11 28 -3 3 -11 -7 -18 -21z"/>
<path d="M720 834 c0 -3 5 -14 10 -25 7 -13 7 -19 0 -19 -5 0 -9 -5 -7 -12 1
-7 -14 -17 -33 -24 -34 -12 -34 -12 -10 -17 14 -3 48 -8 77 -10 50 -4 52 -3
41 17 -12 23 -78 99 -78 90z"/>
<path d="M1930 834 c0 -13 18 -39 24 -34 2 3 -2 14 -10 24 -8 11 -14 16 -14
10z"/>
<path d="M4918 818 c-4 -10 -16 -18 -27 -18 -14 0 -19 -5 -15 -15 4 -9 1 -15
-8 -15 -7 0 -19 -9 -26 -20 -11 -18 -10 -20 8 -20 11 0 20 5 20 10 0 6 6 10
13 10 22 0 49 37 45 62 -3 19 -4 20 -10 6z"/>
<path d="M3005 800 c-10 -11 -15 -20 -11 -20 14 0 46 21 46 30 0 16 -16 11
-35 -10z"/>
<path d="M3248 802 c32 -10 81 -59 89 -90 6 -24 -3 -71 -22 -114 -4 -10 -3
-18 2 -18 6 0 16 18 23 39 16 49 7 131 -16 144 -9 5 -25 18 -35 28 -11 11 -29
19 -41 18 l-23 -1 23 -6z"/>
<path d="M1432 784 c-32 -22 -27 -35 8 -18 17 9 30 20 30 25 0 13 -13 11 -38
-7z"/>
<path d="M1370 754 c0 -8 -3 -13 -7 -11 -5 3 -17 1 -28 -4 -16 -6 -14 -8 13
-8 26 -1 32 3 32 19 0 11 -2 20 -5 20 -3 0 -5 -7 -5 -16z"/>
<path d="M38 753 c-21 -2 -38 -8 -38 -12 0 -8 89 5 98 14 3 3 -1 4 -9 3 -8 -1
-31 -3 -51 -5z"/>
<path d="M2791 701 c-1 -24 2 -32 9 -25 7 7 7 19 1 35 -9 23 -10 22 -10 -10z"/>
<path d="M5220 684 c0 -8 -4 -13 -9 -9 -10 6 -41 -21 -41 -36 0 -8 12 -11 68
-13 24 -1 24 48 0 63 -14 9 -18 8 -18 -5z"/>
<path d="M1110 671 c0 -5 5 -13 10 -16 6 -3 10 -2 10 4 0 5 -4 13 -10 16 -5 3
-10 2 -10 -4z"/>
<path d="M1198 663 c6 -2 18 -2 25 0 6 3 1 5 -13 5 -14 0 -19 -2 -12 -5z"/>
<path d="M3368 625 c-2 -19 0 -35 4 -35 4 0 8 16 8 35 0 19 -2 35 -4 35 -2 0
-6 -16 -8 -35z"/>
<path d="M5120 619 c0 -5 5 -7 10 -4 6 3 10 8 10 11 0 2 -4 4 -10 4 -5 0 -10
-5 -10 -11z"/>
<path d="M768 603 c6 -2 18 -2 25 0 6 3 1 5 -13 5 -14 0 -19 -2 -12 -5z"/>
<path d="M5387 590 c-4 -17 -2 -19 21 -14 33 8 41 14 19 14 -9 0 -17 5 -17 10
0 18 -18 10 -23 -10z"/>
<path d="M693 593 c9 -2 23 -2 30 0 6 3 -1 5 -18 5 -16 0 -22 -2 -12 -5z"/>
<path d="M2955 590 c3 -5 15 -10 26 -10 11 0 17 5 14 10 -3 6 -15 10 -26 10
-11 0 -17 -4 -14 -10z"/>
<path d="M603 583 c9 -2 25 -2 35 0 9 3 1 5 -18 5 -19 0 -27 -2 -17 -5z"/>
<path d="M464 554 c-17 -14 -17 -15 -1 -10 10 3 27 6 38 6 10 0 19 5 19 10 0
15 -34 12 -56 -6z"/>
<path d="M295 530 c-23 -6 -15 -8 38 -9 39 -1 67 3 67 9 0 11 -60 11 -105 0z"/>
<path d="M0 491 c0 -12 30 -18 160 -30 226 -22 272 -23 281 -9 7 10 9 10 9 1
0 -7 5 -13 11 -13 5 0 8 4 5 9 -8 12 25 19 49 10 14 -5 15 -8 5 -9 -75 -8 301
-42 427 -39 l48 1 -55 9 c-30 5 -107 13 -170 18 -137 12 -256 33 -271 48 -7 7
-28 6 -67 -3 -48 -11 -85 -11 -232 1 -206 18 -200 18 -200 6z"/>
<path d="M5110 474 c0 -8 5 -12 10 -9 6 4 8 11 5 16 -9 14 -15 11 -15 -7z"/>
<path d="M5225 470 c3 -5 8 -10 11 -10 2 0 4 5 4 10 0 6 -5 10 -11 10 -5 0 -7
-4 -4 -10z"/>
<path d="M2751 449 c-43 -26 -34 -36 11 -12 18 10 47 21 63 24 l30 6 -35 2
c-20 0 -50 -8 -69 -20z"/>
<path d="M0 450 c0 -6 64 -14 350 -46 25 -2 79 -9 120 -15 41 -6 194 -15 340
-19 166 -5 323 -16 420 -29 159 -22 218 -26 207 -15 -3 4 -73 14 -154 24 -149
19 -255 27 -698 56 -295 19 -342 23 -477 38 -60 7 -108 9 -108 6z"/>
<path d="M2835 421 c-35 -15 -112 -88 -103 -96 2 -2 125 -8 273 -14 149 -6
297 -14 330 -16 l60 -5 -80 28 c-44 16 -130 50 -192 75 -97 41 -122 47 -180
47 -44 0 -82 -7 -108 -19z"/>
<path d="M1480 311 c0 -20 183 -62 335 -76 17 -1 42 -6 56 -10 23 -6 27 -3 31
18 5 24 2 25 -56 31 -34 4 -112 16 -175 27 -122 20 -191 24 -191 10z"/>
<path d="M5168 273 c7 -3 16 -2 19 1 4 3 -2 6 -13 5 -11 0 -14 -3 -6 -6z"/>
<path d="M573 193 c8 -8 126 -55 219 -88 36 -13 156 -42 266 -64 178 -37 214
-41 314 -39 l113 3 -105 23 c-149 34 -178 40 -238 51 -29 5 -67 14 -85 20 -17
5 -79 20 -137 32 -58 12 -154 32 -215 45 -116 25 -142 28 -132 17z"/>
<path d="M2280 111 c0 -11 31 -24 39 -16 3 3 -1 10 -9 15 -19 12 -30 12 -30 1z"/>
<path d="M2397 36 c-9 -23 14 -36 63 -36 l45 1 -48 24 c-57 29 -53 29 -60 11z"/>
</g>
</svg>
